<?xml version="1.0" encoding="UTF-8" standalone="no"?>
<!-- Generator: Adobe Illustrator 19.0.0, SVG Export Plug-In . SVG Version: 6.00 Build 0)  -->

<svg
   version="1.1"
   id="Layer_1"
   x="0px"
   y="0px"
   viewBox="0 0 737.30169 682.14233"
   xml:space="preserve"
   sodipodi:docname="city.svg"
   width="737.3017"
   height="682.14233"
   inkscape:version="1.3 (0e150ed, 2023-07-21)"
   xmlns:inkscape="http://www.inkscape.org/namespaces/inkscape"
   xmlns:sodipodi="http://sodipodi.sourceforge.net/DTD/sodipodi-0.dtd"
   xmlns="http://www.w3.org/2000/svg"
   xmlns:svg="http://www.w3.org/2000/svg"><defs
   id="defs40"><rect
     x="-32.542374"
     y="689.89832"
     width="672.54236"
     height="130.16949"
     id="rect42" /><clipPath
     clipPathUnits="userSpaceOnUse"
     id="clipPath40"><circle
       style="fill:#000000;fill-opacity:1;stroke:none;stroke-width:16.32;stroke-dasharray:none;stroke-opacity:1"
       id="circle41"
       cx="251.74577"
       cy="208.35593"
       r="304.06482" /></clipPath></defs><sodipodi:namedview
   id="namedview40"
   pagecolor="#ffffff"
   bordercolor="#000000"
   borderopacity="0.25"
   inkscape:showpageshadow="2"
   inkscape:pageopacity="0.0"
   inkscape:pagecheckerboard="0"
   inkscape:deskcolor="#d1d1d1"
   inkscape:zoom="0.4609375"
   inkscape:cx="329.76271"
   inkscape:cy="356.88136"
   inkscape:window-width="1440"
   inkscape:window-height="878"
   inkscape:window-x="0"
   inkscape:window-y="0"
   inkscape:window-maximized="1"
   inkscape:current-layer="Layer_1" />&#10;<g
   transform="translate(106.97965,103.88813)"
   id="g25"
   clip-path="url(#clipPath40)">&#10;	<g
   id="g24">&#10;		<g
   id="g23">&#10;			<path
   d="m 493.933,92.867 h -17.067 v -25.6 c 0,-5.12 -3.413,-8.533 -8.533,-8.533 h -51.2 c -5.12,0 -8.533,3.413 -8.533,8.533 v 25.6 h -17.067 c -5.12,0 -8.533,3.413 -8.533,8.533 v 136.533 h -8.533 v -25.6 c 0,-5.12 -3.413,-8.533 -8.533,-8.533 H 357.4 v -8.533 c 0,-5.12 -3.413,-8.533 -8.533,-8.533 -5.12,0 -8.533,3.413 -8.533,8.533 V 203.8 H 331.8 c -5.12,0 -8.533,3.413 -8.533,8.533 v 25.6 h -25.6 V 67.267 c 0,-5.12 -3.413,-8.533 -8.533,-8.533 h -25.6 V 7.534 C 263.533,2.413 260.12,-1 255,-1 H 152.6 c -5.12,0 -8.533,3.413 -8.533,8.533 v 51.2 h -25.6 c -5.12,0 -8.533,3.413 -8.533,8.533 V 289.133 H 92.867 v -25.6 c 0,-5.12 -3.413,-8.533 -8.533,-8.533 h -51.2 c -5.12,0 -8.533,3.413 -8.533,8.533 v 25.6 h -8.533 c -5.12,0 -8.533,3.413 -8.533,8.533 v 204.8 c 0,5.12 3.413,8.533 8.533,8.533 h 102.4 68.267 204.8 102.4 c 5.12,0 8.533,-3.413 8.533,-8.533 V 101.4 c -0.001,-5.12 -3.415,-8.533 -8.535,-8.533 z M 425.667,75.8 H 459.8 V 92.867 H 425.667 Z M 340.333,220.867 H 357.4 v 17.067 H 340.333 Z M 127,75.8 h 25.6 c 5.12,0 8.533,-3.413 8.533,-8.533 v -51.2 h 85.333 v 51.2 c 0,5.12 3.413,8.533 8.533,8.533 h 25.6 V 237.933 H 263.532 V 101.4 c 0,-5.12 -3.413,-8.533 -8.533,-8.533 -5.12,0 -8.533,3.413 -8.533,8.533 V 237.933 H 229.4 V 101.4 c 0,-5.12 -3.413,-8.533 -8.533,-8.533 -5.12,0 -8.533,3.413 -8.533,8.533 V 237.933 H 195.267 V 101.4 c 0,-5.12 -3.413,-8.533 -8.533,-8.533 -5.12,0 -8.534,3.413 -8.534,8.533 v 145.067 42.667 H 161.133 V 101.4 c 0,-5.12 -3.413,-8.533 -8.533,-8.533 -5.12,0 -8.533,3.413 -8.533,8.533 V 289.133 H 127 Z M 41.667,272.067 H 75.8 v 17.067 H 41.667 Z M 24.6,306.2 h 8.533 51.2 34.133 59.734 v 17.067 h -59.733 c -5.12,0 -8.533,3.413 -8.533,8.533 V 493.933 H 24.6 Z M 127,340.333 h 51.2 V 357.4 h -25.6 c -5.12,0 -8.533,3.413 -8.533,8.533 0,5.12 3.413,8.533 8.533,8.533 h 25.6 v 17.067 h -25.6 c -5.12,0 -8.533,3.413 -8.533,8.533 0,5.12 3.413,8.533 8.533,8.533 h 25.6 v 17.067 h -25.6 c -5.12,0 -8.533,3.413 -8.533,8.533 0,5.12 3.413,8.533 8.533,8.533 h 25.6 V 459.8 h -25.6 c -5.12,0 -8.533,3.413 -8.533,8.533 0,5.12 3.413,8.533 8.533,8.533 h 25.6 v 17.067 H 127 Z M 195.267,331.8 V 297.667 255 H 289.134 331.8 365.933 383 V 493.933 H 365.933 V 280.6 c 0,-5.12 -3.413,-8.533 -8.533,-8.533 -5.12,0 -8.533,3.413 -8.533,8.533 V 493.933 H 331.8 V 280.6 c 0,-5.12 -3.413,-8.533 -8.533,-8.533 -5.12,0 -8.533,3.413 -8.533,8.533 V 493.933 H 297.667 V 280.6 c 0,-5.12 -3.413,-8.533 -8.533,-8.533 -5.12,0 -8.533,3.413 -8.533,8.533 V 493.933 H 263.534 V 280.6 c 0,-5.12 -3.413,-8.533 -8.533,-8.533 -5.12,0 -8.533,3.413 -8.533,8.533 V 493.933 H 229.4 V 280.6 c 0,-5.12 -3.413,-8.533 -8.533,-8.533 -5.12,0 -8.533,3.413 -8.533,8.533 V 493.933 H 195.267 Z M 485.4,493.933 H 400.067 V 246.467 109.933 h 17.067 51.2 17.066 z"
   id="path1" />&#10;			<path
   d="m 425.667,331.8 c -5.12,0 -8.533,3.413 -8.533,8.533 V 357.4 c 0,5.12 3.413,8.533 8.533,8.533 5.12,0 8.533,-3.413 8.533,-8.533 v -17.067 c 0,-5.12 -3.413,-8.533 -8.533,-8.533 z"
   id="path2" />&#10;			<path
   d="m 425.667,383 c -5.12,0 -8.533,3.413 -8.533,8.533 V 408.6 c 0,5.12 3.413,8.533 8.533,8.533 5.12,0 8.533,-3.413 8.533,-8.533 v -17.067 c 0,-5.12 -3.413,-8.533 -8.533,-8.533 z"
   id="path3" />&#10;			<path
   d="m 425.667,434.2 c -5.12,0 -8.533,3.413 -8.533,8.533 V 459.8 c 0,5.12 3.413,8.533 8.533,8.533 5.12,0 8.533,-3.413 8.533,-8.533 v -17.067 c 0,-5.12 -3.413,-8.533 -8.533,-8.533 z"
   id="path4" />&#10;			<path
   d="m 425.667,280.6 c -5.12,0 -8.533,3.413 -8.533,8.533 V 306.2 c 0,5.12 3.413,8.533 8.533,8.533 5.12,0 8.533,-3.413 8.533,-8.533 v -17.067 c 0,-5.12 -3.413,-8.533 -8.533,-8.533 z"
   id="path5" />&#10;			<path
   d="m 425.667,127 c -5.12,0 -8.533,3.413 -8.533,8.533 V 152.6 c 0,5.12 3.413,8.533 8.533,8.533 5.12,0 8.533,-3.413 8.533,-8.533 v -17.067 c 0,-5.12 -3.413,-8.533 -8.533,-8.533 z"
   id="path6" />&#10;			<path
   d="m 425.667,178.2 c -5.12,0 -8.533,3.413 -8.533,8.533 V 203.8 c 0,5.12 3.413,8.533 8.533,8.533 5.12,0 8.533,-3.413 8.533,-8.533 v -17.067 c 0,-5.12 -3.413,-8.533 -8.533,-8.533 z"
   id="path7" />&#10;			<path
   d="m 425.667,229.4 c -5.12,0 -8.533,3.413 -8.533,8.533 V 255 c 0,5.12 3.413,8.533 8.533,8.533 5.12,0 8.533,-3.413 8.533,-8.533 v -17.067 c 0,-5.12 -3.413,-8.533 -8.533,-8.533 z"
   id="path8" />&#10;			<path
   d="m 459.8,331.8 c -5.12,0 -8.533,3.413 -8.533,8.533 V 357.4 c 0,5.12 3.413,8.533 8.533,8.533 5.12,0 8.533,-3.413 8.533,-8.533 v -17.067 c 0,-5.12 -3.413,-8.533 -8.533,-8.533 z"
   id="path9" />&#10;			<path
   d="m 459.8,434.2 c -5.12,0 -8.533,3.413 -8.533,8.533 V 459.8 c 0,5.12 3.413,8.533 8.533,8.533 5.12,0 8.533,-3.413 8.533,-8.533 v -17.067 c 0,-5.12 -3.413,-8.533 -8.533,-8.533 z"
   id="path10" />&#10;			<path
   d="m 459.8,178.2 c -5.12,0 -8.533,3.413 -8.533,8.533 V 203.8 c 0,5.12 3.413,8.533 8.533,8.533 5.12,0 8.533,-3.413 8.533,-8.533 v -17.067 c 0,-5.12 -3.413,-8.533 -8.533,-8.533 z"
   id="path11" />&#10;			<path
   d="m 459.8,127 c -5.12,0 -8.533,3.413 -8.533,8.533 V 152.6 c 0,5.12 3.413,8.533 8.533,8.533 5.12,0 8.533,-3.413 8.533,-8.533 v -17.067 c 0,-5.12 -3.413,-8.533 -8.533,-8.533 z"
   id="path12" />&#10;			<path
   d="m 459.8,280.6 c -5.12,0 -8.533,3.413 -8.533,8.533 V 306.2 c 0,5.12 3.413,8.533 8.533,8.533 5.12,0 8.533,-3.413 8.533,-8.533 v -17.067 c 0,-5.12 -3.413,-8.533 -8.533,-8.533 z"
   id="path13" />&#10;			<path
   d="m 459.8,383 c -5.12,0 -8.533,3.413 -8.533,8.533 V 408.6 c 0,5.12 3.413,8.533 8.533,8.533 5.12,0 8.533,-3.413 8.533,-8.533 v -17.067 c 0,-5.12 -3.413,-8.533 -8.533,-8.533 z"
   id="path14" />&#10;			<path
   d="m 459.8,229.4 c -5.12,0 -8.533,3.413 -8.533,8.533 V 255 c 0,5.12 3.413,8.533 8.533,8.533 5.12,0 8.533,-3.413 8.533,-8.533 v -17.067 c 0,-5.12 -3.413,-8.533 -8.533,-8.533 z"
   id="path15" />&#10;			<path
   d="m 50.2,425.667 c -5.12,0 -8.533,3.413 -8.533,8.533 v 17.067 c 0,5.12 3.413,8.533 8.533,8.533 5.12,0 8.533,-3.413 8.533,-8.533 V 434.2 c 0,-5.12 -3.413,-8.533 -8.533,-8.533 z"
   id="path16" />&#10;			<path
   d="m 50.2,323.267 c -5.12,0 -8.533,3.413 -8.533,8.533 v 17.067 c 0,5.12 3.413,8.533 8.533,8.533 5.12,0 8.533,-3.413 8.533,-8.533 V 331.8 c 0,-5.12 -3.413,-8.533 -8.533,-8.533 z"
   id="path17" />&#10;			<path
   d="m 50.2,374.467 c -5.12,0 -8.533,3.413 -8.533,8.533 v 17.067 c 0,5.12 3.413,8.533 8.533,8.533 5.12,0 8.533,-3.413 8.533,-8.533 V 383 c 0,-5.12 -3.413,-8.533 -8.533,-8.533 z"
   id="path18" />&#10;			<path
   d="m 84.333,374.467 c -5.12,0 -8.533,3.413 -8.533,8.533 v 17.067 c 0,5.12 3.413,8.533 8.533,8.533 5.12,0 8.533,-3.413 8.533,-8.533 V 383 c 0.001,-5.12 -3.413,-8.533 -8.533,-8.533 z"
   id="path19" />&#10;			<path
   d="m 84.333,425.667 c -5.12,0 -8.533,3.413 -8.533,8.533 v 17.067 c 0,5.12 3.413,8.533 8.533,8.533 5.12,0 8.533,-3.413 8.533,-8.533 V 434.2 c 0.001,-5.12 -3.413,-8.533 -8.533,-8.533 z"
   id="path20" />&#10;			<path
   d="m 84.333,323.267 c -5.12,0 -8.533,3.413 -8.533,8.533 v 17.067 c 0,5.12 3.413,8.533 8.533,8.533 5.12,0 8.533,-3.413 8.533,-8.533 V 331.8 c 0.001,-5.12 -3.413,-8.533 -8.533,-8.533 z"
   id="path21" />&#10;			<path
   d="m 186.733,75.8 c 5.12,0 8.533,-3.413 8.533,-8.533 v -25.6 c 0,-5.12 -3.413,-8.533 -8.533,-8.533 -5.12,0 -8.533,3.413 -8.533,8.533 v 25.6 c 0,5.12 3.413,8.533 8.533,8.533 z"
   id="path22" />&#10;			<path
   d="m 220.867,75.8 c 5.12,0 8.533,-3.413 8.533,-8.533 v -25.6 c 0,-5.12 -3.413,-8.533 -8.533,-8.533 -5.12,0 -8.533,3.413 -8.533,8.533 v 25.6 c -0.001,5.12 3.413,8.533 8.533,8.533 z"
   id="path23" />&#10;		</g>&#10;	</g>&#10;</g>&#10;<g
   id="g26"
   transform="translate(75.606774,102.88813)">&#10;</g>&#10;<g
   id="g27"
   transform="translate(75.606774,102.88813)">&#10;</g>&#10;<g
   id="g28"
   transform="translate(75.606774,102.88813)">&#10;</g>&#10;<g
   id="g29"
   transform="translate(75.606774,102.88813)">&#10;</g>&#10;<g
   id="g30"
   transform="translate(75.606774,102.88813)">&#10;</g>&#10;<g
   id="g31"
   transform="translate(75.606774,102.88813)">&#10;</g>&#10;<g
   id="g32"
   transform="translate(75.606774,102.88813)">&#10;</g>&#10;<g
   id="g33"
   transform="translate(75.606774,102.88813)">&#10;</g>&#10;<g
   id="g34"
   transform="translate(75.606774,102.88813)">&#10;</g>&#10;<g
   id="g35"
   transform="translate(75.606774,102.88813)">&#10;</g>&#10;<g
   id="g36"
   transform="translate(75.606774,102.88813)">&#10;</g>&#10;<g
   id="g37"
   transform="translate(75.606774,102.88813)">&#10;</g>&#10;<g
   id="g38"
   transform="translate(75.606774,102.88813)">&#10;</g>&#10;<g
   id="g39"
   transform="translate(75.606774,102.88813)">&#10;</g>&#10;<g
   id="g40"
   transform="translate(75.606774,102.88813)">&#10;</g>&#10;<circle
   style="fill:none;stroke:#000000;stroke-width:16.3585;stroke-dasharray:none;stroke-opacity:1"
   id="path40"
   cx="358.72543"
   cy="312.24408"
   r="304.06482" /><rect
   style="fill:#fcfcfc;fill-opacity:1;stroke:#000000;stroke-width:19.2;stroke-dasharray:none;stroke-opacity:1"
   id="rect41"
   width="718.10168"
   height="177.8983"
   x="9.6000004"
   y="494.64404" /><text
   xml:space="preserve"
   id="text41"
   style="white-space:pre;shape-inside:url(#rect42);display:inline;fill:none;fill-opacity:1;stroke:#000000;stroke-width:19.2;stroke-dasharray:none;stroke-opacity:1"
   transform="translate(46.481356,-1.0490417e-5)" /><text
   xml:space="preserve"
   style="font-style:normal;font-variant:normal;font-weight:bold;font-stretch:condensed;font-size:155.873px;font-family:'DIN Condensed';-inkscape-font-specification:'DIN Condensed, Bold Condensed';font-variant-ligatures:normal;font-variant-caps:normal;font-variant-numeric:normal;font-variant-east-asian:normal;fill:#000000;fill-opacity:1;stroke:none;stroke-width:249.395;stroke-dasharray:none;stroke-opacity:1"
   x="76.241722"
   y="610.65942"
   id="text43"
   transform="scale(0.95785908,1.0439949)"><tspan
     sodipodi:role="line"
     id="tspan43"
     x="76.241722"
     y="610.65942"
     style="stroke-width:249.395">Saarbrucken</tspan></text></svg>
