<?xml version="1.0" encoding="UTF-8" standalone="no"?>
<!-- Created with Inkscape (http://www.inkscape.org/) -->

<svg
   version="1.1"
   id="svg2"
   width="100%"
   height="100%"
   viewBox="0 0 172.8849 178.63571"
   sodipodi:docname="coal-outline.svg"
   inkscape:version="1.3 (0e150ed, 2023-07-21)"
   xmlns:inkscape="http://www.inkscape.org/namespaces/inkscape"
   xmlns:sodipodi="http://sodipodi.sourceforge.net/DTD/sodipodi-0.dtd"
   xmlns="http://www.w3.org/2000/svg"
   xmlns:svg="http://www.w3.org/2000/svg">
  <defs
     id="defs6" />
  <sodipodi:namedview
     id="namedview4"
     pagecolor="#ffffff"
     bordercolor="#000000"
     borderopacity="0.25"
     inkscape:showpageshadow="2"
     inkscape:pageopacity="0.0"
     inkscape:pagecheckerboard="0"
     inkscape:deskcolor="#d1d1d1"
     showgrid="false"
     inkscape:zoom="1.2885813"
     inkscape:cx="47.726907"
     inkscape:cy="51.607143"
     inkscape:window-width="1440"
     inkscape:window-height="878"
     inkscape:window-x="0"
     inkscape:window-y="0"
     inkscape:window-maximized="1"
     inkscape:current-layer="g10" />
  <g
     id="g8"
     inkscape:groupmode="layer"
     inkscape:label="ink_ext_XXXXXX"
     transform="matrix(1.3333333,0,0,-1.3333333,-114.95765,1336.7688)">
    <g
       id="g10"
       transform="scale(0.1)">
      <path
         d="m 1692.41,8721.93 c 0,0 -649.8026,40.1133 -607.2526,252.8733 -149.17961,109.7343 -242.12493,454.6635 -119.98216,616.7481 l 443.76236,306.7632 c 0,0 349.8767,144.6464 542.3831,57.7758 L 2108.3,9747.72 c 0,0 134.47,-882.22 -415.89,-1025.79"
         style="fill:#fdfcfb;fill-opacity:1;fill-rule:nonzero;stroke:#000000;stroke-width:72;stroke-dasharray:none;stroke-opacity:1"
         id="path46"
         sodipodi:nodetypes="ccccccc" />
      <path
         d="m 1397.29,9886.46 c 0,0 252.12,181.24 542.39,63.81 l -28.78,-133.42 -378.01,-69.13 -135.6,138.74"
         style="fill:#fdfcfb;fill-opacity:1;fill-rule:nonzero;stroke:#000000;stroke-width:72;stroke-dasharray:none;stroke-opacity:1"
         id="path40" />
      <path
         d="m 1088.89,8947.78 -0.03,-0.04 0.73,-1.23 z"
         style="fill:none;fill-opacity:1;fill-rule:nonzero;stroke:#000000;stroke-width:72;stroke-dasharray:none;stroke-opacity:1"
         id="path50" />
      <path
         d="m 966.578,9559.43 c -175.473,-287.14 39.882,-501.16 39.882,-501.16 31.3,-26.73 60.59,-71.64 82.4,-110.53 l 0.03,0.04 0.7,-1.27 c 0.97,-1.74 1.79,-3.3 2.73,-5.02 58.04,-115.02 191.47,-141.01 234.47,-146.4 -41.48,536.2 293.84,453.27 293.84,453.27 19.07,232.15 -85.06,319.91 -85.06,319.91 -239.29,175.48 -568.992,-8.84 -568.992,-8.84"
         style="fill:#fdfcfb;fill-opacity:1;fill-rule:nonzero;stroke:#000000;stroke-width:72;stroke-dasharray:none;stroke-opacity:1"
         id="path48" />
    </g>
  </g>
</svg>
