<?xml version="1.0" encoding="UTF-8" standalone="no"?>
<!-- Created with Inkscape (http://www.inkscape.org/) -->

<svg
   version="1.1"
   id="svg1"
   width="100%"
   height="100%"
   viewBox="0 0 841.36762 900.08416"
   sodipodi:docname="garbage-outline.svg"
   inkscape:version="1.3 (0e150ed, 2023-07-21)"
   xmlns:inkscape="http://www.inkscape.org/namespaces/inkscape"
   xmlns:sodipodi="http://sodipodi.sourceforge.net/DTD/sodipodi-0.dtd"
   xmlns="http://www.w3.org/2000/svg"
   xmlns:svg="http://www.w3.org/2000/svg">
  <defs
     id="defs1" />
  <sodipodi:namedview
     id="namedview1"
     pagecolor="#ffffff"
     bordercolor="#000000"
     borderopacity="0.25"
     inkscape:showpageshadow="2"
     inkscape:pageopacity="0.0"
     inkscape:pagecheckerboard="0"
     inkscape:deskcolor="#d1d1d1"
     inkscape:zoom="0.26706375"
     inkscape:cx="421.24774"
     inkscape:cy="434.35322"
     inkscape:window-width="1312"
     inkscape:window-height="449"
     inkscape:window-x="0"
     inkscape:window-y="0"
     inkscape:window-maximized="0"
     inkscape:current-layer="group-R5" />
  <g
     id="g1"
     inkscape:groupmode="layer"
     inkscape:label="1"
     transform="translate(-327.31618,-308.95796)">
    <g
       id="group-R5">
      <path
         id="path3"
         d="m 845.70798,397.78003 51.32,-0.39734 -0.34,-43.76533 c -0.0613,-6.75866 -2.84667,-13.34133 -7.66534,-18.076 -4.82666,-4.74933 -11.44,-7.43333 -18.2,-7.38266 l -253.03199,1.97733 c -6.72933,0.0613 -13.32667,2.84533 -18.076,7.65333 -4.75066,4.81467 -7.41066,11.43867 -7.364,18.204 l 0.356,43.76267 51.29067,-0.39467 -0.148,-18.10666 201.71066,-1.57734 0.148,18.10267"
         style="fill:#ffffff;fill-opacity:1;fill-rule:nonzero;stroke:#000000;stroke-width:38.4;stroke-dasharray:none;stroke-opacity:1" />
      <path
         id="path4"
         d="M 7558.1,6536.79 7030.54,2862.47 c -16.07,-110.78 -118.75,-187.79 -229.72,-171.83 -110.98,15.83 -188.02,118.69 -171.95,229.55 l 527.56,3674.35 c 16.01,110.83 118.8,187.78 229.78,171.8 110.92,-15.95 187.96,-118.6 171.89,-229.55 z M 5649.68,2583.56 c -112.13,-0.93 -173.73,164.22 -174.44,276.3 l -29.11,3711.8 c -0.71,112.1 89.39,203.56 201.24,204.39 112.25,0.94 203.85,-89.15 204.6,-201.21 l 29.12,-3711.82 c 0.71,-112.05 -119.39,-278.62 -231.41,-279.46 z m -1121.6,14.53 c -110.63,-17.61 -184.7,132.74 -202.17,243.23 l -585.04,3665.62 c -17.69,110.8 57.6,214.64 168.46,232.25 110.58,17.67 214.59,-57.57 232.16,-168.26 l 585,-3665.56 c 17.69,-110.54 -87.78,-289.62 -198.41,-307.28 z M 3059.86,7152.16 c -60.62,-0.52 -117.99,-27.88 -156.46,-74.78 -38.46,-46.87 -54.06,-108.51 -42.75,-168 l 852.13,-4447.21 c 18.62,-96.92 103.67,-166.73 202.29,-165.98 l 3443.35,26.95 c 98.09,0.76 182.03,71.24 199.55,167.71 l 812.58,4460.18 c 10.97,59.61 -5.63,121.68 -44.61,168.12 -38.99,46.47 -97.35,73.33 -157.97,72.8 l -5108.11,-39.79"
         style="fill:#ffffff;fill-opacity:1;fill-rule:nonzero;stroke:#000000;stroke-width:288;stroke-dasharray:none;stroke-opacity:1"
         transform="matrix(0.13333333,0,0,-0.13333333,0,1496)"
         sodipodi:nodetypes="cccccccccccccccccccccccccccccccc" />
      <path
         id="path5"
         d="m 347.30932,541.06269 802.02398,-6.26133 -0.6427,-81.68533 -74.3933,0.57733 -0.3253,-42.96 c -0.055,-3.35733 -1.416,-6.62933 -3.8054,-8.96 -2.3906,-2.36267 -5.7013,-3.69333 -9.0266,-3.67467 l -164.11202,1.284 -51.32,0.39734 -201.71066,1.58133 -51.29067,0.39467 -152.99599,1.192 c -3.34134,0.028 -6.62267,1.408 -8.94934,3.80533 -2.368,2.37467 -3.70533,5.66933 -3.68133,9.02667 l 0.324,42.97466 -80.73733,0.62667 0.64266,81.68133"
         style="fill:#ffffff;fill-opacity:1;fill-rule:nonzero;stroke:#000000;stroke-width:38.4;stroke-dasharray:none;stroke-opacity:1" />
      <path
         id="path6"
         d="m 5617.37,6701.05 c -111.85,-0.83 -201.95,-92.29 -201.24,-204.39 l 29.11,-3711.8 c 0.71,-112.08 92.31,-202.23 204.44,-201.3 112.02,0.84 202.12,92.41 201.41,204.46 l -29.12,3711.82 c -0.75,112.06 -92.35,202.15 -204.6,201.21"
         style="fill:none;fill-opacity:1;fill-rule:nonzero;stroke:none;stroke-width:216;stroke-miterlimit:4;stroke-dasharray:none;stroke-opacity:1"
         transform="matrix(0.13333333,0,0,-0.13333333,0,1496)" />
      <path
         id="path7"
         d="M 7126.43,6519.54 6598.87,2845.19 c -16.07,-110.86 60.97,-213.72 171.95,-229.55 110.97,-15.96 213.65,61.05 229.72,171.83 l 527.56,3674.32 c 16.07,110.95 -60.97,213.6 -171.89,229.55 -110.98,15.98 -213.77,-60.97 -229.78,-171.8"
         style="fill:none;fill-opacity:1;fill-rule:nonzero;stroke:none;stroke-width:216;stroke-miterlimit:4;stroke-dasharray:none;stroke-opacity:1"
         transform="matrix(0.13333333,0,0,-0.13333333,0,1496)" />
      <path
         id="path8"
         d="m 3879.33,6664.19 c -110.86,-17.61 -186.15,-121.45 -168.46,-232.25 l 585.04,-3665.62 c 17.47,-110.49 121.54,-185.84 232.17,-168.23 110.63,17.66 186.1,121.74 168.41,232.28 l -585,3665.56 c -17.57,110.69 -121.58,185.93 -232.16,168.26"
         style="fill:none;fill-opacity:1;fill-rule:nonzero;stroke:none;stroke-width:216;stroke-miterlimit:4;stroke-dasharray:none;stroke-opacity:1"
         transform="matrix(0.13333333,0,0,-0.13333333,0,1496)" />
    </g>
  </g>
</svg>
