<?xml version="1.0" encoding="UTF-8" standalone="no"?>
<!-- Created with Inkscape (http://www.inkscape.org/) -->

<svg
   version="1.1"
   id="svg1"
   width="100%"
   height="100%"
   viewBox="0 0 802.66663 883.68414"
   sodipodi:docname="garbage.svg"
   inkscape:version="1.3 (0e150ed, 2023-07-21)"
   xmlns:inkscape="http://www.inkscape.org/namespaces/inkscape"
   xmlns:sodipodi="http://sodipodi.sourceforge.net/DTD/sodipodi-0.dtd"
   xmlns="http://www.w3.org/2000/svg"
   xmlns:svg="http://www.w3.org/2000/svg">
  <defs
     id="defs1" />
  <sodipodi:namedview
     id="namedview1"
     pagecolor="#ffffff"
     bordercolor="#000000"
     borderopacity="0.25"
     inkscape:showpageshadow="2"
     inkscape:pageopacity="0.0"
     inkscape:pagecheckerboard="0"
     inkscape:deskcolor="#d1d1d1"
     inkscape:zoom="0.26706375"
     inkscape:cx="402.52561"
     inkscape:cy="439.96986"
     inkscape:window-width="1440"
     inkscape:window-height="878"
     inkscape:window-x="0"
     inkscape:window-y="0"
     inkscape:window-maximized="1"
     inkscape:current-layer="group-R5" />
  <g
     id="g1"
     inkscape:groupmode="layer"
     inkscape:label="1"
     transform="translate(-346.66666,-306.158)">
    <g
       id="group-R5">
      <path
         id="path3"
         d="m 6342.81,8401.65 384.9,2.98 -2.55,328.24 c -0.46,50.69 -21.35,100.06 -57.49,135.57 -36.2,35.62 -85.8,55.75 -136.5,55.37 l -1897.74,-14.83 c -50.47,-0.46 -99.95,-21.34 -135.57,-57.4 -35.63,-36.11 -55.58,-85.79 -55.23,-136.53 l 2.67,-328.22 384.68,2.96 -1.11,135.8 1512.83,11.83 1.11,-135.77"
         style="fill:#453b1b;fill-opacity:1;fill-rule:nonzero;stroke:none"
         transform="matrix(0.13333333,0,0,-0.13333333,0,1496)" />
      <path
         id="path4"
         d="M 7528.1,6461.79 7000.54,2787.47 c -16.07,-110.78 -118.75,-187.79 -229.72,-171.83 -110.98,15.83 -188.02,118.69 -171.95,229.55 l 527.56,3674.35 c 16.01,110.83 118.8,187.78 229.78,171.8 110.92,-15.95 187.96,-118.6 171.89,-229.55 z M 5649.68,2583.56 c -112.13,-0.93 -203.73,89.22 -204.44,201.3 l -29.11,3711.8 c -0.71,112.1 89.39,203.56 201.24,204.39 112.25,0.94 203.85,-89.15 204.6,-201.21 l 29.12,-3711.82 c 0.71,-112.05 -89.39,-203.62 -201.41,-204.46 z m -1121.6,14.53 c -110.63,-17.61 -214.7,57.74 -232.17,168.23 l -585.04,3665.62 c -17.69,110.8 57.6,214.64 168.46,232.25 110.58,17.67 214.59,-57.57 232.16,-168.26 l 585,-3665.56 c 17.69,-110.54 -57.78,-214.62 -168.41,-232.28 z M 3059.86,7152.16 c -60.62,-0.52 -117.99,-27.88 -156.46,-74.78 -38.46,-46.87 -54.06,-108.51 -42.75,-168 l 852.13,-4447.21 c 18.62,-96.92 103.67,-166.73 202.29,-165.98 l 3443.35,26.95 c 98.09,0.76 182.03,71.24 199.55,167.71 l 812.58,4460.18 c 10.97,59.61 -5.63,121.68 -44.61,168.12 -38.99,46.47 -97.35,73.33 -157.97,72.8 l -5108.11,-39.79"
         style="fill:#453b1b;fill-opacity:1;fill-rule:nonzero;stroke:none"
         transform="matrix(0.13333333,0,0,-0.13333333,0,1496)" />
      <path
         id="path5"
         d="m 2604.82,7342.03 6015.18,46.96 -4.82,612.64 -557.95,-4.33 -2.44,322.2 c -0.41,25.18 -10.62,49.72 -28.54,67.2 -17.93,17.72 -42.76,27.7 -67.7,27.56 l -1230.84,-9.63 -384.9,-2.98 -1512.83,-11.86 -384.68,-2.96 -1147.47,-8.94 c -25.06,-0.21 -49.67,-10.56 -67.12,-28.54 -17.76,-17.81 -27.79,-42.52 -27.61,-67.7 l 2.43,-322.31 -605.53,-4.7 4.82,-612.61"
         style="fill:#917a24;fill-opacity:1;fill-rule:nonzero;stroke:none"
         transform="matrix(0.13333333,0,0,-0.13333333,0,1496)" />
      <path
         id="path6"
         d="m 5617.37,6701.05 c -111.85,-0.83 -201.95,-92.29 -201.24,-204.39 l 29.11,-3711.8 c 0.71,-112.08 92.31,-202.23 204.44,-201.3 112.02,0.84 202.12,92.41 201.41,204.46 l -29.12,3711.82 c -0.75,112.06 -92.35,202.15 -204.6,201.21"
         style="fill:#917a24;fill-opacity:1;fill-rule:nonzero;stroke:none"
         transform="matrix(0.13333333,0,0,-0.13333333,0,1496)" />
      <path
         id="path7"
         d="M 7126.43,6519.54 6598.87,2845.19 c -16.07,-110.86 60.97,-213.72 171.95,-229.55 110.97,-15.96 213.65,61.05 229.72,171.83 l 527.56,3674.32 c 16.07,110.95 -60.97,213.6 -171.89,229.55 -110.98,15.98 -213.77,-60.97 -229.78,-171.8"
         style="fill:#917a24;fill-opacity:1;fill-rule:nonzero;stroke:none"
         transform="matrix(0.13333333,0,0,-0.13333333,0,1496)" />
      <path
         id="path8"
         d="m 3879.33,6664.19 c -110.86,-17.61 -186.15,-121.45 -168.46,-232.25 l 585.04,-3665.62 c 17.47,-110.49 121.54,-185.84 232.17,-168.23 110.63,17.66 186.1,121.74 168.41,232.28 l -585,3665.56 c -17.57,110.69 -121.58,185.93 -232.16,168.26"
         style="fill:#917a24;fill-opacity:1;fill-rule:nonzero;stroke:none"
         transform="matrix(0.13333333,0,0,-0.13333333,0,1496)" />
    </g>
  </g>
</svg>
