<?xml version="1.0" encoding="UTF-8" standalone="no"?>
<!-- Created with Inkscape (http://www.inkscape.org/) -->

<svg
   version="1.1"
   id="svg1"
   width="752.17969"
   height="999.38141"
   viewBox="0 0 752.17969 999.38145"
   xmlns="http://www.w3.org/2000/svg"
   xmlns:svg="http://www.w3.org/2000/svg">
  <defs
     id="defs1" />
  <g
     id="g1"
     transform="translate(-15.250614,-7.4899272)">
    <path
       style="fill:#a0a59b;fill-opacity:1;stroke:#000000;stroke-width:1.92;stroke-dasharray:none;stroke-opacity:1"
       d="m 666.80039,173.73588 28.54728,14.27364 84.80223,-23.50953 -2.51888,853.89961 -789.248438,0.8396 10.075512,-829.55043 124.264646,10.07551 5.87738,20.99065 124.26465,4.19813 z"
       id="path7" />
    <path
       style="fill:#cca7e2;fill-opacity:1;stroke:#000000;stroke-width:1.92;stroke-dasharray:none;stroke-opacity:1"
       d="m 195.69275,814.73413 -30.65853,37.18162 -27.39699,70.44939 3.26155,13.69849 -9.13233,33.26777 7.82771,13.69849 56.7509,-1.95692 5.87078,4.56616 7.1754,2.60924 14.3508,-8.48002 -1.30462,-8.48002 -16.96004,3.26154 v -8.48001 l 18.26466,-9.13233 57.4032,33.26776 16.96004,-11.08925 52.83704,24.78776 35.87701,1.9569 0.65231,-11.08924 56.75089,10.43694 h 24.78775 l 22.83082,-13.04618 44.35702,-6.52309 2.60924,-16.96004 h 6.52309 v 7.82771 l 22.83082,7.1754 7.1754,-7.82771 h 9.78464 l 10.43695,18.26466 17.61234,10.43695 8.48002,-21.52621 -7.82771,-11.74156 -7.82771,-1.30462 3.91386,-16.96004 -22.83082,-28.7016 37.18162,-30.65853 30.00622,-36.52931 15.65542,3.91385 7.1754,-16.96004 1.30462,-22.17851 -33.26777,-19.56927 -3.26154,-11.08926 -28.0493,-7.1754 -388.12394,-7.1754 z"
       id="path6" />
    <path
       style="fill:#d7d387;fill-opacity:1;stroke:#000000;stroke-width:1.92;stroke-dasharray:none;stroke-opacity:1"
       d="m 730.58625,431.17635 11.08926,11.74156 1.30462,6.5231 -0.65231,10.43694 16.96003,13.04619 7.1754,22.17851 -1.30461,28.04929 -14.35081,34.57239 -15.00311,-7.17541 -3.26154,-9.13232 -20.22159,-5.87079 0.65231,13.04619 -6.52309,11.08925 -56.09858,18.91697 -2.60924,6.52309 -11.74157,3.26155 -11.74156,7.1754 -3.26155,9.78463 -18.91696,3.91386 -5.21848,6.52309 -14.3508,-4.56616 -28.7016,20.87389 -5.87078,16.96004 -16.96004,-20.8739 -3.26155,5.87079 9.78464,26.09236 8.48002,-1.30462 19.56928,26.09237 -12.39388,26.74468 24.78775,41.09547 34.57238,10.43695 16.96004,26.09236 -343.76692,-5.87078 -11.08926,-278.53601 84.14788,-91.32328 z"
       id="path5" />
    <path
       style="fill:#8abfd4;fill-opacity:1;stroke:#000000;stroke-width:1.92;stroke-dasharray:none;stroke-opacity:1"
       d="m 16.960038,529.02272 5.218473,23.48313 -5.218473,6.52309 24.135439,62.62168 -14.350802,20.8739 c 0,0 -3.261545,15.00311 0,26.09236 3.261546,11.08926 13.046183,16.96004 22.830821,16.96004 9.784637,0 8.480019,9.13233 8.480019,9.13233 l -14.350802,16.30773 v 24.78774 l 22.178511,37.18163 24.135439,-3.91386 7.82771,11.08926 99.150987,48.27087 87.40943,-2.60923 35.22469,-84.14788 -22.17851,-38.48624 27.39699,-35.2247 -36.52931,-61.31706 31.96314,-56.09859 -13.69849,-22.17851 z"
       id="path3" />
    <path
       style="fill:#d3887e;fill-opacity:1;stroke:#000000;stroke-width:1.92;stroke-dasharray:none;stroke-opacity:1"
       d="m 127.20029,290.92988 -11.08926,28.0493 -23.48313,-2.60924 -3.261546,22.83082 24.787746,13.04618 2.60924,20.22159 -31.310841,22.17851 6.523092,18.91696 -8.480019,-2.60923 -18.264657,11.08925 -24.135438,-13.69849 -5.218474,4.56616 3.261546,7.82771 -16.307729,3.26155 2.609237,24.13544 17.612347,9.13233 -5.870782,33.26776 -20.873893,39.13855 2.609236,6.52309 294.843735,0.65231 60.66476,-79.58172 -0.65232,-17.61234 -119.37257,-151.33572 z"
       id="path2" />
    <path
       style="fill:#c9ae95;fill-opacity:1;stroke:#000000;stroke-width:1.92;stroke-dasharray:none;stroke-opacity:1"
       d="m 392.0378,99.150991 24.13544,16.960039 12.39387,-12.39387 9.13233,5.87078 -10.43694,31.96315 12.39387,13.69849 8.48002,-3.26155 21.5262,9.78464 13.04618,-23.48313 35.87701,-9.13233 22.17851,-18.26465 3.91385,3.91385 5.21848,-8.48002 42.40009,-5.21847 1.95693,12.39387 28.04929,21.5262 20.87389,-9.13232 3.26155,20.87389 7.82771,7.1754 v 10.43695 l 29.35391,18.26465 14.3508,86.75712 -13.04618,9.78464 v 16.96004 l 36.52931,30.65853 5.87079,15.00311 -13.6985,18.91696 18.91697,16.30773 7.82771,22.17851 -11.08926,24.13544 7.1754,14.3508 -354.85618,-2.60924 -20.22158,-289.62526 z"
       id="path4" />
    <path
       style="fill:#71ae6a;fill-opacity:1;stroke:#000000;stroke-width:1.92;stroke-dasharray:none;stroke-opacity:1"
       d="m 265.48982,8.4800189 -5.87078,43.7047131 26.09237,31.963149 -5.21847,11.089255 -24.13544,2.609237 -3.91386,13.698497 h 29.35391 l -12.39387,7.1754 v 13.69849 l 13.69849,1.30462 -1.95693,13.69849 -14.3508,-2.60924 -24.78774,45.00933 1.30461,18.91697 -58.70782,-22.17851 -38.48624,0.65231 -22.83082,36.52931 11.08926,19.56927 -5.87079,13.6985 5.21848,14.3508 -7.1754,22.83082 116.76333,1.95693 33.92008,33.92007 25.44006,29.35391 15.65542,25.44006 54.14166,76.32017 36.52931,-58.05551 -11.74157,-24.13544 18.91697,-31.96315 -2.60924,-16.96004 -13.69849,-12.39387 17.61235,-54.79397 -24.78775,-36.52931 0.65231,-60.01245 -18.91697,-15.65542 22.17851,-48.92318 -12.39387,-5.870785 -16.96004,8.480015 -11.74156,-23.483125 1.95693,-22.178511 -15.65543,-19.569275 -7.22984,-28.219944 z"
       id="path1" />
  </g>
</svg>
