<?xml version="1.0" encoding="UTF-8" standalone="no"?>
<!-- Created with Inkscape (http://www.inkscape.org/) -->

<svg
   version="1.1"
   id="svg1"
   viewBox="-38 -19 1253.65789 1044.7149083333"
   sodipodi:docname="germany2.svg"
   inkscape:version="1.3 (0e150ed, 2023-07-21)"
   xmlns:inkscape="http://www.inkscape.org/namespaces/inkscape"
   xmlns:sodipodi="http://sodipodi.sourceforge.net/DTD/sodipodi-0.dtd"
   xmlns="http://www.w3.org/2000/svg"
   xmlns:svg="http://www.w3.org/2000/svg">
  <sodipodi:namedview
     id="namedview1"
     pagecolor="#ffffff"
     bordercolor="#000000"
     borderopacity="0.25"
     inkscape:showpageshadow="2"
     inkscape:pageopacity="0.0"
     inkscape:pagecheckerboard="0"
     inkscape:deskcolor="#d1d1d1"
     inkscape:zoom="0.23614608"
     inkscape:cx="332.42136"
     inkscape:cy="548.38937"
     inkscape:window-width="1440"
     inkscape:window-height="878"
     inkscape:window-x="0"
     inkscape:window-y="0"
     inkscape:window-maximized="1"
     inkscape:current-layer="g1" />
  <defs
     id="defs1" />
  <g
     id="g1"
     transform="translate(-15.250614,-7.4899272)"
     style="display:inline">
    <path
       style="display:inline;fill:#cca7e2;fill-opacity:1;stroke:#000000;stroke-width:2.30845;stroke-dasharray:none;stroke-opacity:1"
       d="m 144.81004,827.99479 -37.50488,43.9379 -33.514869,83.2491 3.98987,16.1875 -11.17151,39.31241 9.57569,16.1874 69.423619,-2.3122 7.18164,5.3961 8.7778,3.0828 17.55526,-10.021 -1.59657,-10.0206 -20.7477,3.8542 v -10.0208 l 22.34319,-10.79131 70.22185,39.31281 20.74707,-13.1046 64.63583,29.2919 43.88835,2.312 0.79697,-13.1041 69.42347,12.3329 h 30.32294 l 27.92933,-15.416 54.26193,-7.7082 3.19181,-20.0418 h 7.97956 v 9.2494 l 27.92917,8.4802 8.7778,-9.2506 h 11.96971 l 12.7675,21.5832 21.545,12.3332 10.3739,-25.4375 -9.5757,-13.8749 -9.5758,-1.5406 4.7879,-20.04141 -27.929,-33.9166 45.4844,-36.2296 36.7067,-43.1663 19.1513,4.6247 8.7777,-20.0414 1.5966,-26.2085 -40.6967,-23.1247 -3.9901,-13.1041 -34.3127,-8.4791 -474.79337,-8.4794 z"
       id="path6-4" />
    <path
       style="display:inline;fill:#d7d387;fill-opacity:1;stroke:#000000;stroke-width:1.97813;stroke-dasharray:none;stroke-opacity:1"
       d="m 741.73087,433.59731 11.4249,12.09695 1.3447,6.72053 -0.6708,10.7528 17.4734,13.4411 7.3926,22.85 -1.3448,28.8986 -24.7881,52.2907 -15.4572,-7.3929 -3.3604,-9.4086 -14.999,5.6213 0.6724,13.4413 3.2822,-5.2463 -57.7971,19.4894 -2.6883,6.7206 -12.0969,3.3605 -12.0971,7.3924 -3.3603,10.0812 -25.32463,17.3692 -5.3766,6.7206 -14.78519,-4.7044 -29.57054,-3.5011 -6.04866,17.4734 -10.75287,11.425 8.73686,-1.3447 20.16165,26.8825 -12.76903,27.5545 25.53807,42.3397 35.61914,10.7527 17.4736,26.8826 -354.17485,-6.0486 -11.42508,-286.969 86.6955,-94.08808 z"
       id="path5-4"
       sodipodi:nodetypes="cccccccccccccccccccccccccccccccccc" />
    <path
       style="display:inline;fill:#8abfd4;fill-opacity:1;stroke:#000000;stroke-width:1.97813;stroke-dasharray:none;stroke-opacity:1"
       d="m 6.4987013,534.40599 5.3765897,24.1939 -5.3765897,6.7205 5.6938497,56.182 -14.7852097,21.5059 c 0,0 -3.36028,15.4575 0,26.8823 3.36041996,11.4249 13.4412597,17.4736 23.5222197,17.4736 10.08065,0 8.7367,9.4088 8.7367,9.4088 l -14.78536,16.8014 v 25.538 l 42.02217,46.6436 24.86618,-4.0325 8.06463,11.425 102.153049,49.7322 90.05577,-2.6883 36.2911,-86.6955 -22.85001,-39.6512 28.22659,-36.2914 -37.63537,-63.1737 32.93084,-57.7969 -14.11314,-22.8497 z"
       id="path3-2"
       sodipodi:nodetypes="cccccssccccccccccccccc" />
    <path
       style="display:inline;fill:#d3887e;fill-opacity:1;stroke:#000000;stroke-width:1.97813;stroke-dasharray:none;stroke-opacity:1"
       d="m 102.57156,282.43599 -11.424789,28.89861 -24.19427,-2.68832 -3.36042,23.52195 25.53839,13.44111 2.6882,20.83388 -32.25876,22.85001 6.72055,19.48973 -8.73671,-2.68834 -20.48491,-6.07988 -23.1991,3.39183 -5.3762897,4.70444 3.3602797,8.06445 -16.8013597,3.36055 2.68822,24.86612 18.1454797,9.40886 -6.0484997,34.275 -21.5058903,40.3234 2.6882103,6.7205 321.2753987,7.3394 62.50151,-81.9911 L 374.116,442.33262 251.12927,286.4151 Z"
       id="path2-6"
       sodipodi:nodetypes="cccccccccccccccccccccccc" />
    <path
       style="display:inline;fill:#c9ae95;fill-opacity:1;stroke:#000000;stroke-width:1.97813;stroke-dasharray:none;stroke-opacity:1"
       d="m 392.93244,91.519202 24.86602,17.473618 12.76918,-12.769178 9.40893,6.048618 -10.75303,32.93083 12.76903,14.11334 8.73686,-3.36028 22.17796,10.08083 13.44108,-24.19417 36.96331,-9.40888 22.85001,-18.81751 4.03233,4.03222 5.37658,-8.736668 43.68369,-5.37638 2.01615,12.768888 28.89853,22.17805 21.5059,-9.40888 3.3603,21.50583 8.0646,7.39278 v 10.75305 l 43.5797,25.48602 21.4536,82.71512 -13.4412,10.08111 v 17.47334 l 17.6295,31.58694 6.0486,15.45723 -14.1133,19.48972 19.4898,16.8014 8.0647,22.85 -11.4251,24.86612 7.3927,14.78555 -365.60007,-2.6886 -20.83368,-298.39367 z"
       id="path4-3"
       sodipodi:nodetypes="cccccccccccccccccccccccccccccccccc" />
    <path
       style="display:inline;fill:#71ae6a;fill-opacity:1;stroke:#000000;stroke-width:1.97813;stroke-dasharray:none;stroke-opacity:1"
       d="m 264.22017,15.608152 -7.71569,27.52298 26.88233,32.93084 -5.37644,11.425 -24.86617,2.68807 -4.03247,14.113318 h 30.24275 l -12.76919,7.39251 v 14.11334 l 14.11331,1.3447 -2.01618,14.11333 -14.7852,-2.68833 -25.53822,46.37223 1.34473,19.48971 -60.48521,-22.84999 -39.65151,0.67221 -23.52207,37.63501 11.42523,20.16195 -6.04863,14.11306 5.37644,14.78556 -7.39261,23.52195 120.29836,2.01612 34.94714,34.94693 26.21025,30.24279 16.12949,26.21027 55.78081,78.63088 37.6352,-59.81337 -12.09714,-24.86611 19.48973,-32.93085 -2.68819,-17.47361 -14.11316,-12.76915 18.14563,-56.45279 -25.53823,-37.63529 0.67083,-61.82945 -19.48959,-16.12946 22.84986,-50.404168 -12.76904,-6.04862 -17.47355,8.73695 -12.09698,-24.19443 2.01616,-22.84974 -16.12947,-20.16184 -15.78436,-11.5694 z"
       id="path1-6"
       sodipodi:nodetypes="ccccccccccccccccccccccccccccccccccccccccccc" />
    <path
       id="path1227"
       d="m 283.03846,1069.0737 -7.04625,-1.2277 -1.33241,-0.046 -0.39698,-4.7566 1.17856,-10.0115 4.8841,-12.8134 0.68312,2.2253 0.28928,2.7742 0.59387,2.9704 0.16449,3.611 1.19242,3.7925 2.41172,3.6404 0.60314,3.4004 -1.64844,4.0835 -1.57921,2.3569"
       style="display:inline;stroke:#000000;stroke-width:1.53853"
       fill="#cdde87" />
    <path
       id="path1229"
       d="m 1237.2769,-42.045448 -4.8601,10.04005 -4.5061,-0.69236 7.4692,-16.13609 2.4939,-10.28543 1.137,-14.42502 1.6693,-4.64132 0.5986,6.46437 -0.014,10.8549 -3.9914,18.8209"
       style="display:inline;stroke:#000000;stroke-width:1.53853"
       fill="#cdde87" />
    <path
       id="path1233"
       d="m 14.609501,643.46659 -1.12316,3.4758 -0.8216,7.9569 1.47086,8.2723 4.76688,8.5398 3.70922,6.215 5.33304,5.2445 9.46691,5.4867 3.8754,1.3601 -0.10753,5.9243 -1.48166,6.1045 -3.84925,3.0316 -3.82615,4.5405 -3.14242,5.7497 -3.91768,11.2472 -1.28167,7.9306 -5.39996,-3.9713 -2.76697,-2.5877 -5.19843,-1.2339 -5.4961397,1.1907 -4.43928004,3.5903 -5.55922996,0.5571 -4.33313,-1.7518 -2.2700003,-3.3625 -2.17373,-1.9096 -6.47391,-2.8717 -2.35926,-4.7659 2.4685,-1.7839 2.31219,-3.0163 2.19079,-4.3806 2.57713,-3.9947 -5.15779,-12.4149 -0.90777,-3.7113 -4.58314,-7.2292 0.48158,-3.3092 1.67919,-3.012 -0.16609,-2.5009 1.47088,-5.7475 4.45313,-5.0544 3.34612,-6.5258 5.3661103,-8.7868 10.6801,-10.0677 6.46993,2.5193 2.9229997,0.3106 1.29703,4.3043 0.50002,0.4368"
       style="display:inline;fill:#d6ddb9;fill-opacity:1;stroke:#000000;stroke-width:1.53853"
       fill="#cdde87" />
    <path
       id="path905"
       d="m -79.580579,458.70879 0.10754,2.794 2.1471,1.4033 8.02341,0.2049 4.54206,-4.6025 3.49796,-2.8391 2.15325,2.3637 0.54776,6.2783 1.41242,8.2449 8.63854,9.9142 7.80248,3.3419 10.08312,-0.8356 4.07447,-1.2463 2.533,1.5917 2.1954,4.9992 5.20781,5.9723 11.6369403,4.9317 3.49874,2.5139 2.23449996,3.8912 -1.19703,5.1583 -6.89409996,12.4954 -1.09854,3.7837 0.65698,1.3616 -1.34012,2.3111 -8.2614303,8.04 -0.96008,3.0148 2.03709,5.2349 1.68766,4.3428 0.15397,-0.8337 11.8275703,-2.7061 4.52053,7.9835 8.5234597,1.0354 0.81083,2.5134 8.97026,7.8781 2.49681,5.8351 6.43268,5.9846 -6.27405,6.3639 0.60929,3.1245 1.79937,3.2913 7.64387,2.4559 3.53643,4.811 -0.32156,6.899 0.86161,11.3426 -17.05093,9.8036 -5.6343,12.0503 -0.61697,2.4179 -0.51541,-0.4186 -1.44629,-4.2565 -2.9320897,-0.2103 -6.55376,-2.2925 -10.32329,10.433 -5.0573303,8.9683 -3.11703,6.6383 -4.27467,5.206 -1.2693,5.7951 0.25238,2.494 -1.57336,3.0682 -0.36621,3.3244 4.8318,7.0652 1.037,3.6774 5.5866,12.2277 -2.43665,4.0823 -2.03709,4.4537 -2.20602,3.0952 -2.4048,1.8687 -6.84502,-0.7324 -8.80317,0.6801 -6.06436,1.7537 -3.03626,-0.2669 -5.73415,-6.3911 -6.19249,-9.3557 -4.04616,-4.5773 -1.65706,-3.7717 -5.34968,-2.0463 -7.40921,-5.0472 -4.97118,-5.1914 -4.36248,-3.3761 -6.41161,-2.1046 -5.42813,-0.3846 -0.79237,-8.0126 0.25858,-9.0351 -3.798931,-6.451 8.410381,-22.8467 -3.32995,-2.6644 -4.097271,1.4771 -6.23049,5.0062 -3.38168,6.4 -2.23047,5.7522 -10.09836,4.6036 -15.29448,0.4247 -16.26162,-3.8357 -2.12554,-1.7564 -0.86161,-1.8314 0.21085,-2.0625 1.50628,-3.0491 3.29319,-3.5245 1.31397,-5.4128 -2.41529,-5.0849 -1.70335,-2.0589 1.25855,-4.5164 2.80931,-5.5298 0.78774,-3.2367 -9.97633,-11.1794 -7.78909,-2.8447 -7.72802,-1.2462 -5.76445,-1.7961 -3.49613,0.076 -2.81348,2.6074 -2.73667,1.7811 -1.58292,-2.7037 -1.35702,-18.0053 -2.34079,-2.9704 -9.6531,-4.142 -13.45264,-2.6945 -3.22854,-3.6435 -1.00626,-8.1698 -0.0768,-9.6721 -3.32657,-9.6847 -1.99264,-2.5657 -3.53289,-4.5526 -7.24981,0.7739 -9.14151,4.2064 -5.19425,0.8337 -1.97864,0.3109 -6.0771,-6.0181 -6.521,-9.0525 -4.92899,-9.3514 -0.83393,-4.9544 2.61698,-5.5234 -1.6449,-4.7114 -2.16633,-8.5043 -0.0922,-6.4352 39.09996,-17.6203 23.42187,-8.6884 10.7801,-2.1965 1.09087,11.8049 1.44163,3.8809 2.18297,2.6619 3.22612,0.8726 4.09033,-2.3931 5.60889,-2.3774 8.27053,2.3901 5.8197,3.4946 1.84583,3.1232 3.75402,3.208 5.86123,1.3323 12.07207,-3.9363 11.9171,-6.7475 3.83446,-5.1771 1.78186,-4.8913 6.13619,4.0354 5.66752,1.3539 2.6759,-1.2045 -0.72773,-8.2195 5.11054,-3.7844 5.39122,-1.4294 1.96986,3.7211 4.369731,4.0522 3.7477,0.4184 11.04705,-8.1911 2.17477,2.0657 1.84553,3.5105 0.18633,2.6953"
       style="display:inline;fill:#ebc9b2;fill-opacity:1;stroke:#000000;stroke-width:1.53853"
       fill="#ffb380">
      <title
         id="title4338">Belgium</title>
    </path>
    <path
       id="path913"
       d="m 291.92241,1008.7252 2.6793,1.858 6.24205,6.1441 -1.89615,10.0051 -8.01372,15.9108 -4.43546,12.9754 -0.82928,10.0466 0.56158,4.7398 1.33241,-3e-4 7.08473,0.9817 3.61091,0.1244 11.30939,3.1459 9.01319,4.2948 1.61873,4.2637 1.02163,5.1687 10.67025,7.3617 12.36193,4.9296 4.28248,-1.3306 15.97806,-15.9461 5.90942,2.8936 3.40135,8.8 -0.28617,4.6154 -4.74055,17.297 -1.00315,9.3417 3.54996,6.2873 0.25995,4.8191 -1.20164,4.3786 -6.23758,0.2212 -8.29712,-2.6047 -6.84901,-7.7466 -5.36214,0.7385 -4.70575,1.7996 -2.5967,7.0374 -2.3791,8.4524 0.52465,4.7497 3.23718,3.7355 2.32834,7.8489 1.56227,10.079 1.27705,4.6648 -1.62829,2.0027 -4.46221,1.2292 -3.62782,-1.4676 -6.03065,-12.2104 -2.84699,-4.6665 -5.03858,-0.9707 -9.03903,2.6128 -13.95912,6.2177 -5.54231,-0.2347 -4.65823,-1.5325 -4.18079,-5.8771 -3.30843,-11.1295 -0.92468,-6.9433 -2.6179,0.1073 -8.66702,-2.3527 -4.18894,2.5616 -0.50928,11.2323 -1.39397,13.9604 -4.8013,8.8661 -12.96552,15.1061 -4.82147,6.6152 -2.02647,4.82 -0.57387,4.2434 1.54472,7.453 2.25558,7.1498 -2.3262,3.9096 -6.62899,1.803 -4.41066,-4.5017 -1.4232,-7.6775 -9.48477,-10.8595 4.95564,-8.4598 -0.65852,-2.1925 -16.205,-5.3208 -6.74471,-6.9209 -9.31214,-12.043 -1.57982,-5.0507 1.26781,-16.0262 -0.3662,-3.9252 -1.20932,-1.9565 -4.79208,-0.1372 -6.96351,5.2173 -6.61037,7.983 -13.12352,8.6795 -1.42933,1.9318 3.70458,9.3976 -0.39079,3.563 -11.13705,13.9914 -2.24463,4.7031 -13.65344,8.3689 -6.20619,3.0709 -17.7459,-7.8928 -4.969179,-1.1231 -8.38851,3.9896 -11.7991,3.5078 -18.814,2.9973 -6.59191,-3.6143 -3.01779,-3.1756 -1.28009,-4.5289 -4.09697,-8.1361 -4.89455,-5.0249 -3.27333,-5.2974 -4.43497,-5.8838 -2.76532,-4.8334 5.2406,-14.4066 -2.62129,-5.412 -0.9924,-7.4952 1.17856,-4.9383 -1.56505,-1.3541 -16.34624,-4.1614 -13.81942974,-0.1672 -10.25204996,4.1197 -8.7073403,7.5016 -1.11392,1.6824 0.3754,1.5107 3.37845,7.838 -7.44646,7.3331 -10.95197,5.2824 h -7.4563 l -3.14594,-1.4678 0.59234,-8.4934 6.37499,-2.6007 5.99109,-5.0472 2.50191,-7.6175 1.13396,-5.4194 -5.23061,-7.1148 1.05087,-3.9849 4.23695,-7.3888 2.65761,-6.621 3.33826,-5.6362 12.2099303,-8.6822 12.22712,-8.725 2.54223,-10.1315 1.87722,-12.4286 1.85246,-2.8626 15.9391397,-6.2709 4.06186,-2.6685 2.25495,-4.0988 13.11259,-13.0967 12.94613,-13.0077 2.73161,-4.4873 2.19847,-2.5791 0.16475,-2.2701 -1.36627,-1.8447 -5.57736,-1.5754 -1.58382,-4.5475 6.72099,-7.4287 8.02127,-4.2798 7.45736,0.477 2.84071,2.4276 -0.33695,2.5943 3.01945,3.0301 5.59217,1.3125 7.07012,-0.4971 7.137019,-2.4845 4.74486,-6.7297 2.83068,-5.14031 11.27246,-5.3449 7.23135,3.5185 20.60612,2.0725 15.12753,-0.7585 9.64386,-3.5671 11.67895,0.6476 7.70818,2.7356 1.40625,-0.2588 2.18403,-0.4323 2.2431,-2.0941 7.45922,-1.1263 1.08625,-1.7945 -0.20466,-1.9008 -1.28318,-1.0296 -9.10012,0.5032 -3.3892,-1.6417 -0.71084,-3.4036 3.21502,-5.6598 6.91934,-4.4074 5.70248,-0.8722 3.99616,1.4768 9.48477,9.3335 2.37172,0.3848 1.45397,-1.525 2.11278,-0.7953 3.3435,1.9029 3.59339,5.6527 0.60771,0.8739 22.26937,-0.8985 4.97964,0.2185 14.66639,10.2369 15.30925,10.61641"
       style="display:inline;stroke:#000000;stroke-width:1.53853"
       fill="#cdde87" />
    <path
       id="path919"
       d="m 755.25997,564.29309 7.2797,-0.56 7.233,-3.6186 0.4015,-5.4485 -0.8062,-10.1714 0.7309,-1.497 11.2228,2.4782 11.3317,4.1819 1.9464,10.0324 3.1876,4.8565 3.7071,4.4057 3.478,1.9362 5.876,0.091 15.4572,5.3584 7.3853,0.9062 7.6815,3.8041 6.5193,3.9568 4.6644,0.6646 2.3652,4.5607 2.9839,3.0437 4.8987,-2.6899 18.1063,-4.3571 6.8311,4.2224 4.7081,4.5975 0.6939,1.5171 -2.0965,4.3859 -0.943,3.3728 -1.7954,2.2917 -6.1734,2.6681 -3.3578,3.9642 -2.3659,4.2738 1.9387,3.8646 5.3064,2.6994 3.6893,0.477 1.5426,2.8253 12.3931,12.2992 10.2656,16.3764 3.7887,2.4384 3.4528,0.4184 3.8134,-2.7114 4.2426,-5.7278 5.1701,-4.2849 4.4506,-2.3163 7.771,-5.1501 0.1387,-3.0636 -7.4073,-11.0055 -4.4393,-9.0195 0.8355,-1.7382 8.6542,0.9494 14.8829,4.1353 23.5086,15.015 4.0183,-0.2786 7.7889,-1.7796 8.34873,-3.2775 3.8311,-3.3553 1.607,1.0383 1.951,8.9524 -1.8745,5.1227 -9.90553,5.5376 0.7569,2.3607 2.8497,2.8981 4.76703,1.7562 6.0261,5.4706 4.3469,6.419 3.6121,2.8627 3.847,1.1925 9.0834,-4.2679 2.4277,-3.0259 1.0216,-2.0892 1.8509,0.3154 3.5227,3.0319 1.134,1.8581 9.3878,3.0464 5.5925,4.1768 3.5182,1.8958 3.5335,-2.3868 14.6993,2.4866 4.2212,2.7527 1.6839,4.9882 -0.4569,3.151 2.884,7.8275 19.9293,17.6591 2.7799,9.6416 0.5878,3.8831 -2.1628,0.4014 -4.7854,2.4506 -6.3003,1.2721 -6.9341,0.1808 -5.0656,4.0159 -4.5946,6.2279 -4.9043,4.4505 -2.5491,3.8289 -1.2924,3.8208 -16.9048,11.9031 -2.1271,4.564 -1.511,6.1267 -0.2199,8.1341 -0.714,7.3259 -2.77,4.0478 -9.3938,3.9919 -2.2665,1.9525 -1.5309,3.8152 -4.9996,6.0672 -5.9582,5.8628 -11.2456,7.0079 -12.41543,2.7356 -16.4492,-0.9109 -9.6792,-1.7985 -4.478,2.9408 -5.8497,8.4516 -6.0101,14.3004 -2.2033,10.6039 -2.3694,-2.8179 -4.6014,-10.8213 -4.5351,-1.1492 -6.1139,-0.6725 -4.6582,-1.363 -10.1981,-5.8111 -5.1581,-1.6279 -5.8099,-0.2022 -5.3505,4.0423 -3.9468,4.6459 -13.0432,0.626 -14.3844,-1.343 -21.1113,-13.6916 -5.2974,0.1244 -5.6153,0.9185 -9.0644,-3.0869 -17.6512,-8.7744 -8.1608,-1.8991 -5.0555,1.5477 -4.581,2.2887 -3.3184,0.3647 -2.044,-3.0042 -6.5345,-3.5921 -6.444,-0.1996 -1.7888,2.3645 -1.4631,20.9585 -1.9291,7.6025 -8.8849,-0.062 -3.0584,3.6588 -6.6799,10.316 -1.0539,9.7641 -12.2058,-1.525 -5.8106,-1.4679 -5.0576,1.371 -5.4733,5.5142 -15.7414,0.079 -12.5212,-2.9104 -5.589,-11.911 -5.792,-4.6432 -7.2379,-4.1249 -2.5309,-0.8879 -4.0699,-6.4952 -7.6169,-7.9868 -12.249,-10.9062 -9.3896,0.6862 -3.5082,-2.8954 -1.59,-4.0598 -4.0012,-6.9988 -4.4672,-4.8556 -5.3633,-1.8387 -7.70543,-6.153 -10.32991,-13.525 -9.40522,-9.3461 -9.00321,0.2212 -5.73262,-4.9073 -5.83429,-6.4367 -4.30006,-6.2319 -6.65623,-15.1919 -4.825,-8.6597 -3.75476,-5.3595 -4.22327,-4.466 -1.52935,-3.5315 5.1555,-8.0933 1.86922,-4.015 2.21356,-3.0782 1.2801,-3.2523 -0.0615,-2.4613 -4.6927,-7.98 -6.31434,-5.763 -9.24982,-5.8537 -5.88157,-7.396 -2.15109,-6.7605 -0.63083,-3.7205 -4.02479,-5.0429 -3.22994,-7.3958 0.0308,-4.4404 0.80927,-1.2276 3.04905,0.03 3.39855,3.0209 4.80656,5.8315 3.92893,8.501 2.43619,-3.2465 4.53347,-9.0247 8.02848,-10.246 8.21559,-5.8421 7.37352,-0.5139 6.03788,-1.6282 5.01486,-2.9517 8.77392,1.1276 6.35515,2.0715 2.04416,-1.3265 2.53991,-5.3575 1.60551,-4.6004 13.9942,-2.8201 4.70635,-8.9198 2.7019,0.03 3.0922,-1.3601 2.9215,-3.3938 2.8333,-1.4155 2.2795,1.6289 2.977,1.0569 3.0676,-2.1574 4.4296,-10.218 2.5253,-1.6182 12.228,-1.7925 16.5686,-6.3045 8.3368,-5.4975 8.2245,-3.0845 8.772,-5.3434 13.9792,-5.3705 0.6278,-2.0781 -6.6818,-4.9779 -2.28,-3.1944 -1.5469,-3.3069 2.204,-3.7486 3.0416,-1.1878 4.0429,1.434 11.8354,1.8721 3.2923,2.0474 1.3293,5.1812 3.1324,4.7667 2.4261,0.4492 -0.6246,7.9281 3.8568,2.9625 5.5716,2.2248 3.6339,-0.5956 2.5155,-3.2921 0.9323,-2.2653"
       style="display:inline;fill:#eecdb7;fill-opacity:1;stroke:#000000;stroke-width:1.53853"
       fill="#ffb380">
      <title
         id="title4334">Czech Republic</title>
    </path>
    <path
       d="m 408.40462,-281.28159 -7.75154,20.15576 -3.19397,2.90455 -1.34012,23.71686 0.5539,5.67615 -1.64551,21.56835 7.23398,9.05076 7.79018,4.82561 26.41396,0.45079 2.66067,3.93325 3.09333,6.74164 -2.59482,11.29814 -3.00976,8.48668 -7.84851,7.03397 -10.00956,5.14086 -6.15683,0.0922 -8.10972,-10.42513 -4.07095,3.20223 -4.2471,5.09273 -7.70095,27.70702 -3.84477,18.75058 -1.82583,1.47859 -3.84477,-2.9013 -6.77117,-0.42619 -8.72178,4.19463 4.26896,4.136822 4.42944,7.09765 -1.97154,3.42011 -7.68986,3.5006 -6.96996,7.37458 -3.02147,5.65124 -8.73133,6.50438 -5.66462,8.4365 2.22727,10.78628 0.76469,9.42599 1.972,10.46408 -2.42465,8.20388 -11.0663,11.4620298 -4.32773,10.13759 9.12951,0.23243 5.52491,2.58511 3.18135,3.1669 3.23994,4.4297302 -2.27187,5.25183 2.16032,13.88588 -1.13547,-0.0308 -4.88594,-1.37242 -3.40242,-2.94686 -9.11968,1.66752 -12.28898,4.09033 -6.71484,-0.50773 -5.13596,-5.14948 -21.51377,-7.9819 -3.49674,-0.72928 -14.36328,-0.99699 -0.0308,-0.0129 -0.13828,-11.0962802 -1.37396,-8.09543998 -4.4145,-12.15095982 7.57243,-2.4945 -0.26775,-23.26667 -2.07649,-12.15775 -19.93406,-13.43987 -15.51002,-12.91256 6.01724,-40.243272 2.19435,-10.8138 -4.85688,-21.49744 2.02294,-24.32106 4.72084,-38.25678 5.09365,-1.22472 3.66645,0.39235 13.8205,7.66386 5.87725,0.99546 3.73983,6.36665 4.62917,2.76793 3.76613,-6.36543 1.88386,-11.11092 11.92835,-13.94973 8.09635,-4.97827 5.46737,-2.31558 5.14072,6.07943 3.85799,6.73347 1.59614,-14.31855 4.48391,-27.23175 -10.40439,-4.76591 -8.78409,3.32919 -9.37263,16.94323 -8.71361,21.43327 -12.5678,1.38472 -10.26975,5.64568 -8.64668,-6.87024 -5.47492,-5.95372 0.30927,-8.25328 1.58488,-4.90547 11.46616,-17.20692 14.90935,-16.35504 14.09592,0.85854 10.54055,-4.96993 6.17327,-0.36928 19.1274,2.03003 10.00051,-3.34537 9.11396,-7.49907 20.17008,-32.46093 11.12414,-13.48 21.60453,-4.19897 20.21425,-15.4483 5.53181,-0.0768 -9.6006,11.67277 -1.61475,4.56329 -1.32011,7.04151 6.31096,15.50954 -1.65058,9.2986 0.0129,18.36443 -6.61255,9.39427 m 45.15184,-9.81723 -3.02704,3.10148 -9.95003,-4.67268 4.55544,-6.15574 11.05643,-2.66714 6.449,1.05547 -7.21675,6.08203 -1.86705,3.25795 m 111.07991,198.461162 0.21221,13.45648 -1.96232,3.92939 -2.8927,2.58544 -7.5786,2.73484 -6.56931,3.82724 -5.86984,6.69653 -2.19082,9.58972 4.58853,7.02363 8.37254,3.86387 2.1311,13.35354 -6.93642,6.59268 -17.84038,6.53422 -1.94185,15.8654298 0.52775,12.5033302 -0.3631,9.10059 -1.47859,12.57162 -14.58858,5.64506 -9.22827,-19.23 -0.0162,-7.68017 -2.70558,-8.9805802 -0.45235,-7.63258998 -3.18149,-12.23854982 -13.59818,-3.45643 -5.28844,-0.49851 -7.42644,2.15295 -1.82629,-0.90007 -8.58319,-16.82091 1.75014,-18.37964 -4.54036,-9.37628 -0.57543,-4.21683 0.19388,-4.6476 -3.77968,-3.91046 -4.62793,-2.11509 -2.07001,-10.40454 5.39692,-2.41403 13.20706,1.43396 3.87818,-0.65238 3.57227,-2.09878 10.91012,-16.903392 -0.254,-3.75612 1.19855,-4.86656 11.54017,-1.67168 5.07181,6.64055 -1.13241,10.532692 0.53235,13.5171 6.98627,3.73262 2.73036,0.55848 2.99639,-9.95248 2.08218,-4.83886 2.79085,-2.6842 1.00007,-9.111212 -1.60736,-5.57798 -3.46536,-4.17926 13.09061,-11.20675 13.48971,-8.91012 7.82215,-0.44465 7.87387,2.18248 7.32706,3.01872 3.97633,2.58897 2.24203,4.17711 -4.89562,9.9648 -1.36167,5.44968 3.35583,17.930992 m -148.27111,-1.34628 -1.3432,2.3882 -4.72298,-2.63127 -0.28772,-8.709962 2.00509,-7.7651 -1.94879,-7.03086 2.45191,-4.43221 6.45359,10.6098 1.79924,4.96486 -2.73331,5.81354 -1.67399,6.792872 m 155.68569,26.67722 -7.13178,5.73262 -1.57415,-0.29232 -2.33817,-7.84555 3.75382,-4.7787 2.21095,-4.05111 1.57677,0.12326 2.16692,4.36143 1.33551,6.75578 m -153.37676,-3.31981 3.00396,7.08828 3.56536,15.04014 5.82463,16.84459 -2.73393,6.94134 1.56813,9.00871 -1.97184,9.3072098 -12.65319,10.59273 -13.9299,0.13857 -14.31947,-5.64585 -20.08993,-10.7302398 -1.4555,-5.73186 -2.75345,-3.23487 -4.85625,-17.40772 0.84468,-21.25342 10.24407,-2.32327 22.47413,-9.47123 5.07841,1.72922 5.20628,5.32953 6.15388,0.46772 9.11751,-7.12982 1.68242,0.44313 m 340.0193,76.8280498 -2.7573,2.38205 -12.8459,-3.33318 -15.7655,-8.79395 1.7009,-18.2994898 3.6998,-8.00419 28.8201,19.47127 0.6262,7.6772498 -3.4786,8.90024 m -335.83895,38.6819102 -3.45567,0.67391 -4.40436,-10.97828 -0.52157,-3.40875 5.62858,-6.83823 3.70939,-7.79895 9.37383,-11.9120402 5.53246,-14.08591 1.99754,0.26777 -2.57451,12.58885 -12.7338,34.9692802 -2.55143,6.52192 m -51.52988,-19.60312 -8.09449,1.6072 -3.9988,-3.36858 -7.48583,-1.51703 -1.97971,-20.7455302 0.81856,-1.19394998 3.72367,1.56703998 12.63257,10.0669502 4.20434,10.69104 0.17689,2.89439 m 192.04862,-7.8414 -2.94131,2.00525 -11.83312,-1.4586 -13.36092,9.28045 -5.06118,-2.95699 1.94232,-5.94003 1.39394,-2.15774 4.49083,-2.51095 3.00271,-3.68614 1.17855,-5.7711002 2.77254,3.11871 8.23975,1.30628 4.02632,1.8366102 3.37551,2.70899 2.77314,4.22418 m -159.52017,13.97822 -5.22103,1.25856 -5.85416,-3.07242 -9.32307,-11.29198 -1.1247,-2.94746 5.0007,2.01277 6.1236,5.91956 5.11241,1.37395 6.91362,5.05456 -1.62737,1.69093 m 67.8432,-4.57808 13.56725,8.50962 9.25846,-0.38311 6.26943,3.52211 1.45395,5.34153 0.42774,11.85503 -6.66623,3.38886 -7.32258,-1.25708 -10.02961,4.39113 -32.41248,-19.85668 0.77393,-16.13654 1.41855,-6.31221 15.43526,-1.24627 7.82018,8.18376 m -236.36162,5.93417 -1.92508,2.56882 1.89154,-18.87798 9.51786,-19.7069702 3.53198,0.63082 -3.93262,5.26271 -1.25858,3.75185 -1.8886,7.5484702 0.45542,3.99077 19.19169,2.10478 -2.41572,3.41243 -19.66159,1.35859 -3.5083,7.95525 m 21.14496,11.10613 -3.18919,3.1284 -7.34596,-0.77235 -3.97033,-3.30258 1.5155,-3.22597 4.0394,-2.29894 3.25271,-0.22165 4.82272,1.80801 0.87544,4.88299 m 208.19782,46.43498 -11.98376,0.0782 -4.47838,-5.44515 -4.57483,-1.45228 2.59946,-6.56741 3.27348,-2.3432 11.49877,4.49871 3.51062,8.49373 0.15692,2.73957"
       style="display:inline;fill:#d9e1ba;fill-opacity:1;stroke:#000000;stroke-width:1.53853"
       fill="#cdde87"
       id="path955" />
    <path
       id="path1173"
       d="m 1413.846,839.58699 8.2508,-2.1791 0.3815,0.1072 2.0658,0.3754 2.2017,5.9844 0.297,0.3525 2.5609,3.8034 2.6259,5.1446 3.4983,3.6502 6.7272,0.8231 9.1896,3.8721 6.8024,8.7139 8.8597,2.7777 0.6077,0.033 1.5752,-0.6771 5.9256,-1.177 1.4263,1.7468 5.4306,3.9547 2.4343,3.8204 -0.3431,4.4273 1.5389,4.7572 2.0714,1.4651 -1.7493,3.5855 -13.2764,18.5593 -5.4962,5.1769 -3.9338,1.4447 -6.6091,-0.854 -6.4091,2.2181 -5.4162,4.2944 -5.2852,1.8405 -3.5536,4.7131 -4.1384,9.6346 -5.5565,8.4398 -6.0087,5.5619 -2.8913,4.6399 1.4801,14.5656 -3.1487,4.6451 -4.4188,4.8463 -2.2179,4.0629 -4.7632,23.08071 -4.8605,7.806 -4.7878,6.1201 -0.2784,5.0821 0.8062,5.664 -4.8028,12.123 -6.7172,12.7983 -0.9863,5.0202 2.6216,6.307 -6.9436,8.4584 -4.1036,4.153 -3.5477,2.1819 -1.7866,4.9779 -2.5051,11.9184 1.6294,5.0161 0.6831,4.7101 -6.3542,3.548 -1.3539,5.4102 -0.9325,6.6426 -2.4441,3.2427 -6.9135,6.2323 -18.9419,-0.1888 -6.8614,2.5959 -1.6807,4.0602 -0.091,3.1253 -2.011,3.1393 -3.8803,4.0875 -4.1868,2.1097 -10.2362,-3.3827 -20.4845,6.7717 -3.2787,3.6356 -3.1642,-2.0128 -4.7309,-1.6481 -21.2665,-0.457 -8.078,2.914 -11.1604,0.2956 -10.4827,-1.3081 -7.463,2.6048 -5.9187,9.6947 -3.0629,3.374 -2.4463,2.2098 -5.5349,3.3855 -4.5226,3.8678 -6.2381,3.0633 -5.7926,0.2024 -5.8243,-3.406 -1.877,1.0662 -1.3956,3.7327 -2.6971,3.3362 -7.8298,4.5015 -2.0872,0.079 -0.4754,0.027 -6.0116,3.3345 -10.2078,2.4081 -5.2796,-0.6463 -8.3874,13.3763 -2.6988,2.5388 -8.6628,4.582 -7.214,2.5033 -6.4371,-1.0308 -2.4909,0.1537 -28.0424,1.4925 -14.8243,-1.6125 -9.743,-4.2495 -6.6132,-5.0712 -3.4606,-5.8604 -7.4936,-3.1772 -11.5217,-0.5384 -9.2977,-5.4299 -7.0568,-10.3552 -9.13673,-7.971 -11.2271,-5.6079 -9.1361,-8.3568 -7.014,-11.0712 -12.0086,-9.6422 -16.9408,-8.2419 -5.0566,-1.7193 -1.1293,-2.9171 -8.6407,-10.9511 -3.6532,-4.0302 0.014,-5.6504 -1.7676,-3.1262 -3.0361,-2.0928 -1.9771,-8.0669 -1.2356,-6.0388 -2.483,-3.8016 -17.4668,0.079 13.8312,-15.2646 7.024,-4.4305 8.4382,0.2481 2.6196,-1.4572 0.597,-2.1385 1.1816,-4.8129 0.4646,-4.5062 0.4878,-4.2382 -1.0309,-2.3173 -4.0782,-0.5157 -2.5128,-10.2588 1.8586,-4.0297 1.9301,-2.8406 -3.2404,-12.4706 0.537,-4.3333 6.4604,-1.0231 5.2505,-3.001 4.2222,-3.3091 1.0093,-3.9462 3.1595,-8.1454 -3.8833,-9.55481 -19.0504,-5.2995 -1.1017,-2.3813 4.1962,-2.9883 4.4163,-4.1843 2.5184,-3.2098 3.5625,-0.6156 5.1726,1.2495 9.4066,6.5248 3.5051,0.8124 3.2169,-2.241 3.5439,-0.6525 9.9712,-0.34 8.2784,-2.1626 -2.3554,-7.3909 -0.3124,-5.4389 -1.6884,-4.2682 0.5816,-4.8365 3.1528,-3.9525 0.4939,-8.4401 4.854,-5.9927 2.3783,-0.9711 9.2352,0.4493 2.2753,1.3126 1.4247,0.2427 15.54213,12.8161 14.5702,9.4184 11.7332,4.494 16.7209,-0.78 17.7728,-0.8756 29.5136,-4.1661 22.1062,-3.2094 1.2508,-2.6985 2.8207,-6.4747 -3.1103,-5.0808 -0.3725,-6.2555 3.0396,-8.4276 10.3222,-7.6781 30.9938,-5.7657 17.499,-6.7039 2.0601,-7.1058 5.2861,-7.322 5.2899,-1.896 7.7402,2.3776 9.5495,5.0809 8.1787,2.3685 4.3974,-2.5015 14.7855,-11.6614 17.15,-11.7083 9.6184,-27.884 0.8616,-4.3736 13.1578,-4.5138 19.723,-1.6764 10.4832,2.3 7.7933,0.9557 11.2917,-1.9595 15.6818,-7.6555 6.0871,-0.5645 5.1775,3.4521 5.575,2.8475 3.9931,3.8216 3.3779,5.6754 1.6994,2.0808 2.6744,2.7814 4.6656,3.7049 4.1573,0.6232 29.4155,-11.2369 1.5987,-1.8155"
       style="display:inline;stroke:#000000;stroke-width:1.53853"
       fill="#cdde87">
      <title
         id="title4330">Hungary</title>
    </path>
    <path
       id="path1377"
       d="m 1015.2439,-525.06026 -3.0277,1.42628 -1.5514,-0.33698 1.6176,-6.36819 1.2956,-2.7864 4.5622,-2.76021 1.4523,0.38003 -4.35,10.44547"
       style="display:inline;stroke:#000000;stroke-width:1.53853"
       fill="#cdde87" />
    <path
       id="path1379"
       d="m 1024.847,-585.42545 -1.5125,4.56959 -1.9977,-5.40659 0.6432,-1.11855 0.9231,-5.47983 3.19,-3.14332 5.4138,1.52935 0.032,1.35703 -4.8814,4.64284 -1.8124,3.04948"
       style="display:inline;stroke:#000000;stroke-width:1.53853"
       fill="#cdde87" />
    <path
       d="m -261.71086,529.47579 6.07694,6.0182 1.97864,-0.3123 5.19441,-0.8324 9.14151,-4.2064 7.24968,-0.7739 3.53273,4.5524 1.99278,2.5656 3.32672,9.6848 0.0768,9.672 1.00624,8.17 3.22856,3.643 13.45264,2.6948 9.65324,4.142 2.34065,2.9704 1.35856,18.0053 1.58275,2.7038 2.73684,-1.7813 2.81331,-2.6072 3.49674,-0.062 5.76447,1.7961 7.72801,1.2464 7.7891,2.8449 9.97635,11.1791 -0.78775,3.2365 -2.80934,5.5301 -1.25855,4.5163 1.70337,2.0589 2.41528,5.0849 -1.31396,5.4126 -3.2932,3.5245 -1.50627,3.0494 -0.21086,2.0628 0.86161,1.8308 2.12557,1.757 16.26163,3.8354 15.29443,-0.4247 10.09837,-4.6036 2.23051,-5.7523 3.38163,-6.3997 6.23052,-5.0061 4.097261,-1.4771 3.32994,2.6645 -8.410351,22.8468 3.798911,6.4507 -0.25858,9.0351 0.79235,8.0127 5.42815,0.3845 6.41159,2.1045 4.36252,3.3763 4.97118,5.1914 7.40919,5.0471 5.34983,2.0461 1.6569,3.772 4.04617,4.5771 6.19252,9.3559 5.73415,6.391 3.03624,0.2643 6.06418,-1.7537 8.80332,-0.6814 6.84487,0.7323 2.52358,4.6808 6.56993,2.6449 2.2387803,1.8326 2.38558,3.2816 4.39145,1.5999 5.53658,-0.7478 4.31174,-3.7424 5.4513797,-1.3832 5.23812,1.0524 2.85529,2.4901 5.53491,3.7809 3.34351,-0.4662 6.41452,2.567 6.1011,6.9522 2.27065,6.6857 0.45234,3.5912 2.5613,4.0637 9.79539,18.2351 3.50289,1.1231 4.07033,-2.3373 2.79086,-3.5609 3.68862,-0.4645 5.72199,2.1508 3.62444,2.2348 1.26164,7.6689 1.16317,1.5187 2.64883,-1.4477 4.53913,-0.027 7.07398,2.361 10.059099,-1.4385 8.14035,-2.6136 4.04297,0.3894 5.96402,9.215 7.25459,3.7679 16.30854,3.6939 17.44449,5.2077 6.76117,3.7443 4.65652,1.9172 -0.1909,11.6739 -1.5309,1.6675 -19.07399,22.3072 -7.98418,7.8938 -4.54808,11.6787 -3.76091,18.1064 -6.35759,17.0328 -8.9738,15.9498 -3.68447,12.1685 1.63876,8.3802 -2.19188,12.8559 -6.04802,17.3278 -1.69582,13.2643 2.65452,9.2154 4.4039,2.1354 -11.27248,5.3448 -2.83082,5.14051 -4.74484,6.7297 -7.136879,2.4844 -7.07029,0.4972 -5.59214,-1.3138 -3.01947,-3.0303 0.33693,-2.5942 -2.84067,-2.4277 -7.45738,-0.4769 -8.02126,4.2794 -6.72101,7.4293 1.58381,4.5472 5.5774,1.5755 1.36624,1.8443 -0.16475,2.2704 -2.1985,2.5791 -2.73158,4.4875 -12.94614,13.0075 -13.1126,13.0968 -2.25481,4.0988 -4.06202,2.6687 -15.9391297,6.2708 -1.85231,2.8625 -1.87738,12.4286 -2.54218,10.1315 -12.22716,8.7254 -12.2099103,8.6819 -3.33827,5.6363 -2.65759,6.6209 -4.23697,7.3883 -1.05085,3.9857 5.23042,7.1145 -1.13393,5.4195 -2.50191,7.6174 -5.99109,5.0474 -6.37499,2.6005 -0.59234,8.4931 3.14594,1.4679 h 7.4563 l 10.95197,-5.282 7.44643,-7.3332 -3.37842,-7.838 -0.3754,-1.511 1.11392,-1.6823 8.7073303,-7.5017 10.25205996,-4.1194 13.81942974,0.1672 16.34624,4.1611 1.56505,1.3542 -1.17856,4.9382 0.9924,7.4953 2.62126,5.4117 -5.24057,14.407 2.76532,4.8334 4.43495,5.8835 3.27335,5.2974 4.89455,5.0247 4.09694,8.1362 1.28012,4.5292 -8.03128,7.1343 -13.23215,6.2529 -1.77335,4.5079 -0.2354,5.2542 1.12624,4.2421 6.62179,5.8205 6.69516,12.5717 4.02956,11.0669 9.81586,11.0332 2.34911,3.2328 -0.83853,2.5246 -3.09271,4.1789 -4.66392,14.3474 -4.49359,2.0078 -4.88639,0.5846 -13.90406,9.7454 -5.74769,-1.737 -8.32622,-0.4924 -6.3706797,3.0509 0.15694,6.7177 4.8827097,6.5159 2.64542,6.8804 0.75392,7.007 5.57889,5.5648 8.15115,3.6912 4.76899,0.5691 3.00902,2.0634 1.70814,2.5079 2.54296,15.0765 -2.43864,3.5557 -4.64025,1.2771 -3.16208,5.8989 -6.07097,8.5776 -3.61167,6.9945 2.93072,6.6052 1.10623,4.8109 -2.17804,4.7174 1.87601,7.7252 5.8888,7.9392 16.73889,11.7534 15.68448,9.6699 4.93887,1.7631 22.35721,-4.051 3.60644,0.7232 2.2597,6.7189 0.88776,4.4757 -2.89128,6.4989 -6.56193,8.7702 -6.9384,6.8684 -4.34453,5.9418 0.45235,5.6929 -0.23081,7.5066 -5.43197,1.8926 -0.0615,-1.5078 -2.08708,-1.4002 -1.94016,0.6156 -1.55381,1.5385 -0.42619,2.8709 -11.59909,4.0112 -8.12097,4.4264 -32.95007,27.4191 -15.0970697,7.5991 -3.25055,5.0204 -3.7027503,9.5594 -9.16384,7.7452 -7.77431,3.4126 -18.80261,2.6217 -19.31108,7.359 -8.03528,-4.5496 -21.70053,-1.4618 -12.541631,-11.9254 -25.2879,-9.1883 -6.94703,-16.4015 -11.66555,-2.1477 -7.75385,-0.2926 -4.3765,-2.8108 -0.67238,-5.4375 0.40619,-5.1264 -8.38374,1.5385 -6.23559,-0.6309 -3.92434,1.688 -3.16916,2.074 -3.31997,-1.8664 -2.06615,0.3079 -0.12298,3.0324 -7.57261,-0.027 -7.9245,-2.6927 -20.43378,-10.3008 -3.13165,-1.5832 -14.42409,-4.7111 -5.60383,-3.8834 -3.93831,-8.4667 -3.40151,-2.9265 -2.01018,-1.7556 -14.19067,2.4572 -5.48369,5.6974 -8.29529,6.4697 -55.43094,29.7762 -11.22215,13.8672 -13.63263,20.7973 -2.15218,10.2145 0.54776,33.6306 8.39066,18.6738 0.837,4.1818 -5.86265,-0.7077 -9.5563,-3.3989 -7.81665,-3.7064 -7.94756,0.4923 -7.94617,2.6374 -6.81841,1.3231 h -4.76991 l -3.42214,1.6601 -2.04352,3.9374 -0.68623,2.8494 -8.18158,-1.8003 -18.33088,-8.5083 -16.61596,-6.4298 -10.71701,3.2573 -7.08257,3.4557 -4.46744,-1.3077 -2.81023,-5.0666 -1.69583,-4.8051 -6.12973,-5.0636 -14.25163,-8.3343 1.20627,-2.8665 3.17425,-3.7802 0.29847,-2.5727 -2.36142,-4.2233 -13.3209,-6.1004 -6.40545,-1.9894 -4.58359,2.1862 -3.51244,2.9987 -5.86248,-13.7933 -5.11273,-3.3958 -8.26375,-1.6648 -8.93257,-5.2958 -9.12644,-6.442 -22.77615,-11.5886 -6.44975,-1.9849 -2.84267,0.831 -2.50236,4.4203 -3.06656,13.1364 -1.24934,1.3078 -11.21643,-1.3385 -13.44694,-4.0542 -6.4356,-0.1536 -5.62106,-0.8615 -4.71147,-4.382 h -24.37635 l -3.60598,-2.6309 -4.70054,-6.9467 -5.54845,-5.9206 -4.52869,-3.3309 -3.72491,-3.5512 -3.74814,-1.123 -6.30005,1.7432 -8.27083,-0.2318 -6.62007,-1.5233 -3.6349,-0.2319 -12.37193,-17.3108 -1.46012,-4.408 -7.23858,-2.4416 -9.15199,-1.8234 -21.69854,-13.7579 -9.70939,-7.0668 -1.00623,-3.325 0.60929,-2.42 -1.91494,0.2157 -4.08463,3.722 -2.38188,3.2137 -2.3979,0.232 -3.26505,-1.1999 -2.72389,-2.5681 -1.42474,-2.9124 2.88286,-4.1066 4.64976,-5.1713 2.66652,-6.0772 0.73544,-5.7545 -5.19548,-4.7573 -8.36468,-3.1527 -6.23529,-1.6337 -7.63261,-4.8144 -3.44813,-3.0863 -2.57252,-7.0622 0.75699,-4.6126 16.39103,-1.0772 17.19954,-13.9808 24.54951,-57.8742 22.7334,-69.5655 9.50631,-12.1702 9.49016,-2.0849 -5.33104,-11.1085 -5.36707,4.1341 -2.8396,4.928 -2.82393,2.1974 17.29139,-64.3762 8.10789,-23.2241 10.89011,-23.8983 11.0852,12.2805 8.88337,12.0134 3.96985,9.7471 1.85384,30.4445 4.24727,7.0759 6.90992,7.5545 -1.98108,-7.2744 -4.58713,-6.0961 -1.6749,-40.4249 -3.38752,-11.9702 -6.6607,-10.762 -23.16694,-24.3487 -1.70136,-4.2132 0.0768,-7.6775 8.73778,1.9315 6.95456,5.0045 -0.13857,-4.3347 -1.46011,-4.7641 -0.64777,-16.4236 3.81786,-37.3977 1.55826,-6.2431 0.10754,-7.9779 -8.10344,-3.2767 -6.67606,-1.5634 -6.68039,-4.4075 -31.64365,-28.464 -7.874,-24.7218 -9.21383,-18.92861 -1.56536,-7.7759 1.63091,-7.2561 9.41938,-14.1381 -3.73371,-10.8308 -5.13717,-3.0181 -3.83016,-5.753 5.91293,-7.159 4.60392,-4.4162 h 7.47152 l 9.11199,3.5495 8.0628,6.3755 6.80301,2.5751 -18.37319,-16.4668 -34.46926,-2.4546 -6.92811,-3.0567 -5.55643,-4.0033 -0.54468,-9.6064 5.60109,-3.1428 5.848,-6.7435 -3.80047,-6.3253 -5.91509,-3.315 -9.92741,-1.8993 -9.57725,-0.2845 -1.71381,-3.5519 7.37581,-7.298 -4.14233,-4.0918 -6.6773,0.1245 -9.61725,-0.1672 -8.28819,-4.4982 -6.32022,-11.374 -5.55215,-1.0939 -4.04878,0.3708 -4.84318,-4.8928 -5.72677,-2.1991 -4.4916,0.323 -4.4342,-6.7235 -32.11168,-18.5991 -14.58549,-4.6786 -14.77504,1.926 -7.11766,-3.4408 -3.89584,-8.3703 -1.89338,-12.9978 -19.75561,-14.2614 5.72385,-5.0309 10.50024,0.9308 12.68256,-1.4988 5.43967,-4.4145 -7.71739,-8.3524 -6.39176,-3.0761 -2.26756,-2.8991 -1.5512,-6.2644 4.6173,-1.6386 2.53221,2.011 8.02234,2.6937 14.3673,1.8163 -3.95462,-6.8532 -5.14196,-2.4893 -2.1714,-1.9922 -11.26077,-3.2313 -5.63322,0.7323 -11.49584,-3.4404 -1.09086,-6.6998 0.0129,-5.5203 6.33052,-10.8477 18.7692,-6.6467 43.29029,-2.1639 17.14076,5.57 12.60439,0.6094 16.12364,-4.0444 7.75292,-4.7837 21.45853,0.7772 18.28731,10.705 13.02384,28.6147 6.99133,10.2207 24.3115,-10.2838 31.71335,6.7569 4.95425,9.5467 4.01387,-6.4425 7.42828,-7.0064 3.93771,4.6186 1.39856,5.4889 33.89443,4.9595 5.5837,-0.4786 -7.9217,-7.6102 -4.6924,-15.575 8.35761,-52.4585 -6.42498,-16.309 -6.06681,-25.2583 -2.17033,-14.7233 0.4708,-4.8542 2.94547,-6.5686 12.7872,2.8389 9.60708,3.639 19.89993,-1.6486 8.44883,5.2562 -2.53159,10.6853 0.27234,14.1017 1.97308,7.178 3.46105,8.3745 15.49325,2.0998 15.80341,7.3891 20.8643,4.3877 29.39486,12.8966 13.83819,-2.1953 14.22408,-7.2982 25.12188,-2.2412 2.45203,-2.9643 -14.08528,-0.9493 -11.72558,-8.0462 -0.63697,-6.7634 2.43667,-5.5754 7.34784,-12.5319 40.03398,-15.1789 27.19284,-2.135 29.11572,-7.4615 15.52095,-9.8938 11.33969,-14.0917 3.40043,-2.9625 4.17357,-2.2969 -2.67897,-6.0278 10.95888,-58.6078 4.06525,-10.2494 6.49713,-7.9105 8.93028,-5.5659 13.11183,-5.5519 45.82293,-3.9387 7.13858,-3.1761 0.0922,6.4353 2.16633,8.5045 1.64492,4.7114 -2.61714,5.5231 0.83392,4.9544 4.92885,9.3515 6.52098,9.0524 m 524.93002,1112.21001 -3.36917,19.6753 1.65429,5.8668 3.43318,4.1833 1.49398,4.5111 0.98625,52.9259 -0.73084,4.1865 -13.078,20.7448 -3.0096,6.1235 -1.67184,26.2946 -2.36203,6.9912 -4.65317,6.8036 -8.77302,22.2279 -7.24964,9.8687 -17.99391,-13.2074 -10.6761,-5.8528 -5.07335,-6.019 -3.30332,-4.1511 2.50543,-5.1973 5.22471,-5.2864 0.98933,-4.296 -11.43016,-5.471 -5.17488,-3.5404 0.35388,-5.7437 4.46019,-8.762 -1.4755,-7.4682 h -6.72132 l -5.13196,-1.3848 -0.48619,-3.8649 4.08803,-4.7281 5.2381,-6.1605 0.20143,-7.0883 -5.7897,-3.3418 -5.08609,-6.016 -1.75537,-7.9298 4.4328,-5.1251 6.91535,-3.111 -4.53991,-8.2529 -3.32782,-0.354 -2.57883,-1.8893 2.37067,-3.6065 5.5049,-5.2988 8.08959,-16.2337 10.46731,-7.336 18.0833,-4.2002 4.93456,-1.9909 4.68605,-5.6342 5.06288,-3.5421 5.92355,0.7539 5.39659,2.4819 3.28382,2.5524 2.64807,-2.3985 2.77068,-7.1315 -1.2601,-6.4204 1.50934,-17.4322 3.5766,-9.7793 5.13934,-0.3537 4.51962,5.6403 -0.43542,4.8112 1.30778,11.4747 -0.10753,7.4283"
       style="display:inline;stroke:#000000;stroke-width:1.53853"
       fill="#fff6d5"
       id="path999">
      <title
         id="title4305">France</title>
    </path>
    <path
       id="path1367"
       d="m 1437.5903,746.32149 -0.5215,5.6473 -2.6887,6.8599 -3.5621,7.2056 -2.6312,8.4544 -2.6849,17.6931 -2.2227,8.3007 -11.2949,17.3242 1.8619,21.7803 -1.5988,1.8153 -29.4154,11.2371 -4.1573,-0.6232 -4.6655,-3.7049 -2.6744,-2.7814 -1.6995,-2.0805 -3.3778,-5.676 -3.9931,-3.8214 -5.575,-2.8474 -5.1777,-3.4521 -6.087,0.5632 -15.6817,7.6554 -11.292,1.9592 -7.7931,-0.9552 -10.4834,-2.3002 -19.7227,1.6764 -13.1581,4.5136 -0.8616,4.3738 -9.6185,27.8837 -17.1498,11.7084 -14.7856,11.6618 -4.3974,2.5014 -8.1787,-2.3687 -9.5495,-5.0806 -7.7404,-2.3781 -5.2896,1.8961 -5.2863,7.3222 -2.06,7.1059 -17.4991,6.7038 -30.9936,5.7657 -10.3223,7.6781 -3.0394,8.4277 0.3723,6.2551 3.1101,5.0809 -2.8204,6.4746 -1.2493,2.6987 -22.1063,3.2097 -29.5138,4.166 -17.7727,0.8756 -16.7207,0.7801 -11.7332,-4.4945 -14.5703,-9.4181 -15.54223,-12.816 -1.4247,-0.2426 -2.2752,-1.3125 -9.2352,-0.4479 -2.3784,0.9694 -5.7777,-4.1411 -1.9723,-5.737 -9.4346,-14.809 -11.062,-24.6414 -0.6754,-7.2655 3.2026,-8.5172 3.0566,-6.5393 0.1708,-5.0639 0.2968,-1.385 2.2034,-10.6036 6.0101,-14.3005 5.8495,-8.4517 4.4782,-2.9409 9.6791,1.7985 16.4494,0.9125 12.41533,-2.7353 11.2454,-7.0082 5.9582,-5.8626 4.9997,-6.0674 1.531,-3.815 2.2664,-1.9528 9.3939,-3.9918 2.77,-4.0473 0.7138,-7.3261 0.2201,-8.1341 1.5109,-6.1268 2.127,-4.5642 16.9048,-11.9028 1.2923,-3.8208 2.5492,-3.829 4.9042,-4.4507 4.5947,-6.2279 5.0654,-4.0157 6.9344,-0.1807 6.3001,-1.2724 4.7854,-2.4506 2.1629,-0.4001 9.3165,0.8677 2.2304,6.5178 1.5825,6.8568 15.6477,-1.9086 7.3739,-15.6357 4.3386,-2.2141 6.769,-5.8302 4.356,-4.9918 3.5576,2.5244 5.6699,9.0804 5.7823,7.197 3.202,2.7414 0.5416,2.3387 3.074,1.1262 5.7931,0.2923 4.0244,1.9415 1.8431,7.0225 0.7277,6.4606 -1.3309,4.8105 -0.5324,4.1929 4.1257,1.2169 5.6453,-2.1361 3.8704,-2.7296 12.8477,4.0829 3.1155,-12.3577 4.2372,-6.5725 6.0164,-3.4825 5.3261,-4.3161 4.959,-3.1915 3.6264,-0.2345 1.4402,-1.2588 4.5141,-0.2022 5.3322,0.6311 6.8998,-2.1715 10.0938,1.8122 6.7201,4.7897 6.1878,1.1848 6.7906,-1.1002 4.3197,-3.5549 5.5524,-11.216 4.9206,-0.4001 7.4864,-2.5544 10.8498,-1.2155 25.2408,-0.8171 6.7611,3.2132 16.0278,3.1509 7.4663,5.0299 3.8841,6.6473 2.1873,4.6542 16.7903,5.4004 24.7479,6.3924 5.8601,0.363"
       style="display:inline;stroke:#000000;stroke-width:1.53853"
       fill="#ff8080">
      <title
         id="title4332">Slovakia</title>
    </path>
    <path
       id="path895"
       d="m 954.46327,857.64499 -0.2968,1.3849 -0.1708,5.0639 -3.0566,6.5393 -3.2027,8.5175 0.6755,7.2652 11.062,24.6415 9.4345,14.8092 1.9724,5.737 5.7777,4.1408 -4.854,5.9931 -0.4939,8.4398 -3.1528,3.9527 -0.5816,4.8366 1.6884,4.2681 0.3124,5.439 2.3554,7.3909 -8.2784,2.1626 -9.971,0.3399 -3.5441,0.6524 -3.2169,2.2412 -3.5052,-0.8124 -9.4065,-6.5252 -5.1726,-1.2492 -3.5625,0.6153 -2.5184,3.2099 -4.4163,4.1843 -4.1962,2.9887 1.1017,2.3812 19.0504,5.2995 3.8833,9.55451 -3.1595,8.1457 -1.0093,3.9462 -4.2222,3.309 -5.2505,3.0011 -6.4604,1.023 -0.537,4.3335 3.2404,12.4703 -1.9301,2.8407 -1.8585,4.0299 2.5127,10.2587 4.0782,0.5155 1.0309,2.3171 -0.4878,4.2386 -0.4646,4.5062 -1.1816,4.8128 -0.597,2.1385 -2.6196,1.4572 -8.4382,-0.2481 -7.024,4.4302 -13.8313,15.265 -4.9928,2.7269 -5.2402,6.0743 0.9431,12.7645 -0.697,1.1986 -1.2247,2.6876 -17.7141,-3.6983 -0.6016,0.1073 -11.6479,2.1641 -7.7672,6.2052 -9.6039,3.7503 -20.5046,-0.994 -19.8038,2.9984 -4.6592,1.8764 -5.1277,1.1509 -4.7374,3.5619 -2.6157,4.898 -4.7632,6.2534 -6.9073,5.0005 -7.5686,3.8875 -1.747,3.1615 -2.4698,1.8416 -4.343,-2.1956 -3.4691,0.2129 -4.2913,-1.4646 -14.1339,-1.3493 -15.5552,-2.4711 -7.4327,-2.5561 -8.4204,-1.9671 -9.0254,-1.5642 -8.0663,-0.2669 -4.0609,-0.7324 -19.4295,-4.4205 -12.7553,-0.1373 -16.8618,-1.7897 -33.49119,-6.8661 -9.74664,-2.8485 -9.31061,-0.854 -10.9824,-2.4451 -8.35608,-4.029 -5.33983,-7.6675 -5.68151,-10.203 -10.3933,-13.3417 -2.10664,-6.6383 3.18825,-5.8024 3.27996,-4.3704 -0.36925,-1.8899 -2.53267,-0.9572 -18.26242,5.5983 -17.74852,7.0538 -6.97316,0.1245 -6.73487,-1.6616 -8.95101,-0.2049 -8.63763,1.808 -17.26556,0.7398 -10.18697,5.1266 -6.62178,10.214 -3.67062,8.2543 -2.96593,2.6249 -6.07354,0.888 -9.01136,-0.9478 -6.28452,-2.5608 -6.30156,-7.2575 -10.00606,-1.2139 -9.18919,-0.4172 -2.40159,-1.3753 0.28617,-4.6155 -3.40134,-8.8003 -5.9094,-2.8933 -15.97807,15.9459 -4.28251,1.3309 -12.36193,-4.9298 -10.67025,-7.3619 -1.02161,-5.1684 -1.61858,-4.2639 -9.01319,-4.2949 -11.30938,-3.1455 -3.61107,-0.1244 1.49704,-2.4106 1.50475,-4.1385 -0.7216,-3.3772 -2.53682,-3.5543 -1.32318,-3.7487 -0.28928,-3.6033 -0.69696,-2.9476 -0.38618,-2.7623 -0.76007,-2.2005 8.01374,-15.9105 1.89631,-10.0051 -6.24222,-6.1441 -2.67929,-1.8584 2.29942,-1.2246 9.14612,1.4277 5.94664,-3.1187 3.16918,-3.1955 8.04357,3.3888 11.75204,6.6888 5.5149,4.4237 2.23096,3.3522 1.20779,2.7979 -0.86316,4.6755 2.67946,1.9309 5.62414,0.8817 3.71845,1.5702 -1.50782,6.1451 -0.39693,5.1321 5.25058,-0.5554 6.66576,-3.7359 5.30119,-6.9131 3.33658,-6.7284 2.83838,-16.5463 0.85855,-1.3832 3.87678,1.4124 15.90895,-0.3322 7.42031,3.2626 11.86557,0.7755 -0.26938,2.5926 2.02524,4.0988 5.15226,5.968 2.53466,3.8783 5.52491,0.7722 8.55453,-1.9656 5.0361,-2.0997 1.85002,1.5836 7.81323,-1.3938 6.96657,-4.6408 1.75982,-3.5784 6.98781,-2.4403 9.46907,-5.7394 12.95323,-4.3811 42.3445,-4.5642 1.65166,-3.63691 -0.60006,-8.3551 1.1201,-1.2294 5.31844,2.0995 8.53916,1.9514 6.53467,2.9592 4.25896,3.8524 3.94234,0.1564 6.09077,-2.7167 8.25267,-1.7666 7.73586,3.9691 2.25941,4.32591 -1.34163,2.2289 0.16773,3.5066 2.41878,2.9335 6.31082,4.7552 8.09821,4.0543 4.18695,-0.3554 1.51396,-4.0164 1.40011,-9.5445 0.47083,-10.16621 -1.89831,-5.8205 -4.3442,-1.3971 -5.17304,-0.4153 -2.74654,-1.2002 0.9324,-3.2051 4.06987,-8.3293 -0.13857,-11.0826 -9.37355,-12.5456 -8.10265,-12.1628 0.0114,-4.1494 4.7761,-7.2251 7.38874,-5.7862 16.3761,-9.6845 5.17257,-2.0299 6.64118,-1.6736 9.5377,-4.0323 4.5458,-4.0994 3.035,-4.4162 4.1625,-22.8743 1.0308,-0.9787 1.3001,-1.3569 16.8246,7.6023 1.4832,-1.3368 2.7853,-1.3326 5.3346,-6.1319 1.1016,-4.5977 -0.2707,-8.6536 0.323,-8.182 0.9909,-2.6142 2.531,0.8876 7.2379,4.125 5.7919,4.6436 5.5891,11.9105 12.5211,2.9106 15.7415,-0.079 5.4733,-5.5139 5.0575,-1.371 5.8107,1.4678 12.2058,1.5248 1.0539,-9.764 6.6798,-10.316 3.0583,-3.6586 8.8851,0.062 1.9291,-7.6023 1.4631,-20.9585 1.7888,-2.3647 6.4438,0.1996 6.5345,3.5921 2.0442,3.0041 3.3184,-0.3649 4.581,-2.2884 5.0554,-1.5477 8.1609,1.899 17.6512,8.7745 9.0644,3.0869 5.6153,-0.9188 5.2973,-0.1244 21.1112,13.6913 14.3846,1.3433 13.0432,-0.6263 3.9468,-4.6456 5.3504,-4.0423 5.8099,0.2023 5.158,1.6278 10.1983,5.8111 4.658,1.3633 6.1141,0.6722 4.5349,1.1495 4.6016,10.821 2.3694,2.8182"
       style="display:inline;stroke:#000000;stroke-width:1.53853"
       fill="#fff6d5">
      <title
         id="title4328">Austria</title>
    </path>
    <path
       d="m 69.016361,192.98414 -11.50214,3.61024 -2.62238,-1.17241 0.77853,-1.26624 10.01896,-2.02069 3.32765,0.85072 m -32.68649,4.22825 -15.8725,0.77846 -5.15306,-2.1183 -0.73237,-1.62729 4.35653,-0.53552 13.38061,0.95724 4.00572,1.70871 0.0162,0.83536 m -48.87118,5.39095 -7.5149,0.33868 -3.1921,-2.19219 18.3819303,-3.57788 11.46002,-0.57705 1.93522,0.91706 -21.0703003,5.08653 m -116.633621,257.08232 -7.02287,-2.7956 -10.35576,-6.7729 -15.81235,2.7466 -10.00405,-6.61838 -8.77239,-1.572 -4.98409,-4.94471 -5.04843,-7.96388 4.759,-4.266 4.24202,-1.16484 16.22933,0.98149 11.40017,4.2536 19.34662,18.12342 5.35815,0.4708 5.87538,-1.36005 -2.40327,-4.61034 -5.06304,-2.63116 -7.38673,-5.10271 -5.58739,-6.64641 14.89908,-0.2877 -1.69107,-3.29719 -1.34781,-5.4678 -13.39708,-20.03467 3.1912,-4.6613 5.0733,-10.18734 5.8091,-8.28989 4.09572,-1.94088 7.00134,-5.56648 15.67912,-16.84374 10.278971,-14.03028 8.3233,-17.07615 14.50377,-47.91592 3.62599,-8.01161 5.45567,-8.755 5.46816,2.3084 3.65874,3.0626 14.60549,-5.58267 25.57608,-15.81559 8.4786803,-15.02553 7.54045,-6.64586 28.4943097,-11.76287 15.38772,-2.96175 23.24988,0.83077 16.94676,-1.20475 20.171169,0.61694 7.00918,9.36115 3.97954,6.75318 6.91012,4.08643 10.9538,3.2322 -1.55136,12.66239 -1.68014,25.08506 -1.14779,4.39086 -5.77015,10.22618 -6.69716,18.61337 -2.34512,12.3693 -1.7766,2.27497 -21.451119,-1.66909 -3.21934,1.93038 -0.63544,2.6646 0.83238,3.2988 -0.7539,3.1513 -1.88723,2.4745 0.60006,4.20884 3.37302,4.98244 6.59084,3.40908 7.271819,0.80785 3.78785,-0.23998 2.50037,3.55011 2.33833,5.37612 -0.68005,6.4876 -1.69105,8.66872 -4.05189,7.82473 -10.679169,8.56868 -4.72791,2.94881 -4.33883,1.35092 -2.19618,2.31648 -1.18009,3.03779 0.006,2.77866 6.56423,8.01268 -0.29232,1.69578 -2.36482,3.72726 -3.025,3.44819 -19.05111,6.16239 -7.58214,-1.19397 -4.65561,3.4374 -1.41702,0.59536 -4.54638,-3.86153 -10.42239,-4.90398 -4.1745,1.04486 -2.44141,1.99615 -6.9978,2.08946 -5.21302,3.75477 -0.48159,5.37099 7.41537,14.61838 2.80331,2.99087 -0.29849,5.19843 3.63536,6.85911 3.60614,8.5191 0.0307,5.2241 -0.92776,5.2127 -2.84254,7.2542 -8.99595,16.7898 -0.37542,3.3376 0.42005,2.5872 2.53051,0.9246 1.85275,1.4863 -0.77238,2.2706 -15.17429,10.883 -2.0015597,1.9628 -5.88801,-1.1188 -1.09086,1.9458 0.52774,3.3228 2.05557,3.0669 4.93609,1.9468 4.0769297,3.4258 2.98054,6.3099 -6.35036,20.1989 -16.5177897,-1.9932 -4.1794203,-1.0554 -4.3188,-2.4155 -0.006,-0.027 -1.68769,-4.3428 -2.0371,-5.2349 0.96008,-3.0148 8.2614303,-8.04 1.34013,-2.3111 -0.65699,-1.3614 1.09856,-3.7839 6.89408996,-12.4955 1.19703,-5.1582 -2.23450996,-3.8912 -3.49873,-2.5139 -11.6369503,-4.9317 -5.20781,-5.9723 -2.19539,-4.9992 -2.53283,-1.5917 -4.07465,1.2463 -10.08312,0.8356 -7.80247,-3.3419 -8.63855,-9.9142 -1.41241,-8.2449 -0.54775,-6.2783 -2.15325,-2.3637 -3.49796,2.8391 -4.54206,4.6025 -8.02327,-0.2049 -2.14726,-1.4017 -0.10753,-2.794 -0.18606,-2.6956 -1.84553,-3.5105 -2.1748,-2.0657 -11.04704,8.1912 -3.74771,-0.4185 -4.369731,-4.0522 -1.96984,-3.721 -5.39107,1.431 -5.11071,3.7841 0.72776,8.2195 -2.67576,1.2048 -5.66769,-1.3539 -6.13618,-4.0355 m -17.65623,-49.49869 7.22847,8.16881 1.4555,2.50659 0.34002,2.55593 -10.56547,1.73029 -9.86558,-10.13933 -7.42908,1.26461 -2.20955,-4.52837 0.26452,-2.63574 7.71538,-1.35064 13.06366,2.42785 m 17.65929,49.49949 -1.78168,4.8914 -3.83461,5.1771 -11.91696,6.7475 -12.07207,3.9362 -5.86138,-1.3339 -3.75386,-3.2079 -1.84599,-3.1233 -5.81972,-3.4945 -8.27035,-2.3901 -5.60907,2.3774 -4.09017,2.3931 -3.22626,-0.874 -2.18294,-2.6621 -1.44167,-3.881 -1.09087,-11.8046 6.52839,-1.3372 13.66125,0.8386 10.05697,5.2656 13.62451,3.5425 11.21244,-4.3005 7.81354,5.629 9.9022,-2.3906 m 98.343331,-248.3891 -15.71002,8.32304 -1.10472,-1.67259 10.3524,-7.58314 6.46267,0.93242 m -20.91492,29.86393 -8.89151,8.64149 -4.56265,-3.13432 -1.18319,-2.33025 3.20902,-7.11504 12.96845,-11.06557 -1.53937,15.00369"
       style="display:inline;stroke:#000000;stroke-width:1.53853"
       fill="#fff6d5"
       id="path1265">
      <title
         id="title4336">Netherlands</title>
    </path>
    <path
       d="m 1188.1993,-1833.3472 7.0946,6.512 7.3044,7.633 6.307,16.6039 7.2515,0.091 2.5993,5.6522 7.3938,9.3607 9.7183,7.863 0.032,3.0233 -5.9983,8.9669 0.5154,11.1503 2.2731,14.049 3.5155,11.2609 0.1553,3.3856 -1.2877,4.1611 -1.3878,6.4629 -0.123,5.5198 0.4846,2.6333 0.8755,1.3663 3.727,-0.3138 6.8077,0.5199 4.2006,1.9418 3.7855,12.9634 -0.457,2.6263 -4.9431,6.6468 -1.1001,4.9427 0.6401,6.9977 1.8956,7.5436 2.9491,8.3553 5.5339,8.6415 7.1714,8.8786 4.9146,7.3775 2.5501,5.305 1.1538,3.7857 -2.1491,5.1889 -1.3172,9.901 0.857,11.0654 -0.2677,7.303 -4.22,10.4979 -3.3252,3.938 -0.46,5.3381 0.5616,8.7907 2.3484,10.5117 1.2171,7.1537 1.767,5.042 2.1076,3.1666 9.4662,4.9412 6.3845,11.6132 4.2608,9.4361 9.1724,24.8698 -14.6839,5.033 -12.084,-5.086 -5.2721,3.8773 -9.8685,1.2692 -10.9507,3.7836 -3.2371,5.4449 -2.7639,2.3404 -11.1998,-5.9753 -11.0638,-10.6985 -6.2631,9.6963 -4.4832,2.1718 -5.0029,-7.687 -3.7785,-0.957 -1.707,2.895 -1.0246,7.3337 -2.2022,5.9159 -0.3707,3.6303 0.923,14.432 -0.3984,3.3902 -9.807,-0.9216 0.9385,3.7105 2.2777,1.7032 1.0801,2.3078 -3.2008,3.4881 -9.614,0.5954 -0.6678,3.4387 3.1915,5.0128 -1.6745,4.8188 -1.7885,2.0002 -11.2293,3.9073 -6.7154,-0.062 -1.64,3.1534 -0.1922,3.934 1.5963,3.6935 3.1222,1.7671 1.1832,2.3426 0.2615,5.2496 -2.3715,1.1755 -7.7661,-8.5938 -2.0748,0.6539 2.001,4.638 4.4307,4.8727 2.7739,5.1252 2.5844,6.2305 0.032,4.8874 -7.3376,16.4368 -6.8385,10.5493 -5.003,9.4031 -2.6156,9.7263 4.3333,4.4365 4.9607,6.4975 4.2054,12.9357 4.6991,11.4372 8.4547,10.5718 -0.9401,6.6234 -1.3093,5.1921 -11.56,12.1687 -12.8578,17.9016 -12.0698,44.0014 -4.73,6.1153 -13.08,8.2653 -4.5069,7.3629 -9.5862,9.0432 -17.3131,8.3699 -7.4491,10.4839 -2.9985,10.5463 -4.0322,0.9862 -4.2955,-3.7834 -5.5714,-2.6595 -0.2954,6.7621 0.5246,4.915 -9.0675,-6.799 -3.6856,6.9421 -2.5545,11.3887 -11.6491,15.7883 -13.6278,-2.0148 -1.374,2.7472 3.686,1.7424 0.6693,2.3794 -2.3899,1.4063 -3.7163,0.062 -5.5861,3.2564 -3.7854,-0.046 -1.44623,7.226 -2.5072,8.7899 -7.4983,3.9319 -3.9262,0.9216 -1.734,4.9964 11.8586,0.4908 -0.7539,4.2096 -0.077,4.1773 -1.0124,4.5228 -13.1877,7.0236 -1.8568,5.1597 -2.6854,3.2526 -6.0122,0.077 0.091,-2.9357 0.8492,-3.3387 -8.9275,0.6508 -3.0747,-7.1613 -1.6193,1.9348 1.2294,5.8297 2.5801,6.0097 2.9637,8.8392 -1.8992,5.7281 -2.267,2.8942 1.8362,2.5279 4.8739,1.7725 2.0875,3.4626 -5.5776,3.2487 -6.722,10.6778 -7.384,0.52156 -4.2807,7.02367 -4.8101,0.15397 -4.0539,-4.18881 -6.3723,-3.34874 -1.8214,6.3228 -0.1661,4.99118 3.9469,12.47809 7.0985,9.51001 6.4253,3.99032 -4.4232,2.995 -3.1553,6.41824 -3.4238,19.80774 -1.9724,7.82309 -1.9791,13.73881 1.8992,11.47249 1.4185,5.62442 3.3685,7.58372 -8.5145,-0.71084 -9.0947,-4.22804 1.5202,9.3046 -5.1907,11.18092 1.3077,9.68939 1.3371,6.29359 -1.417,10.51485 2.706,3.21642 1.6038,6.18589 -2.2069,4.67036 1.1585,3.92955 0.7971,14.02051 2.4408,21.87103 -0.5247,4.64282 5.6125,18.89385 -0.974,6.7136 -0.4216,8.52163 7.5178,7.9491 6.4784,-0.34466 6.5723,-0.34308 2.5807,1.9563 2.7215,5.68509 2.2686,6.74915 5.4092,-0.75545 8.4484,-5.87971 5.5778,-1.5409 4.14,10.52332 10.7246,13.66266 6.1854,6.05664 10.20373,2.87037 11.1384,10.85706 -0.8416,13.75587 4.6699,4.36482 12.8469,4.77053 4.8261,7.05059 2.4662,6.09354 3.5924,4.97118 4.7193,15.33139 -0.8479,9.65078 -4.9453,3.552 -11.5769,10.87165 -5.0316,7.92908 -4.0121,4.96503 -11.6024,10.78872 -4.343,2.03018 -4.0077,5.51581 -4.00843,2.49635 -3.7323,-1.1847 -13.3593,10.18928 1.234,4.0642 10.6368,1.317 5.2978,-2.28955 3.93543,-5.0181 4.4738,-1.31089 4.1692,0.72315 4.2007,-4.00955 3.3569,-1.69184 3.6332,1.66184 4.3954,8.94302 -8.0008,5.16119 -5.8224,0.48773 -2.1807,15.11276 -3.2531,6.59207 -2.407,3.20025 -12.75683,6.93535 -8.2762,8.43376 -9.906,6.8944 -4.4931,-1.24165 -6.4507,6.85149 -14.624,8.33605 -7.2991,10.79088 -16.9155,9.9462 -8.5615,7.89924 -23.8331,0.98315 -22.813,-1.22779 -7.0853,3.76186 7.3315,1.01394 5.1883,3.47948 6.1178,-1.60625 14.4869,1.48011 7.4839,1.77552 9.8639,12.30329 -6.924,4.64055 -12.1139,3.70567 4.9817,17.66529 4.0692,11.88879 -4.8039,7.34599 0.3739,32.87896 -7.0094,0.777 -2.7007,13.64802 2.3624,6.89363 0.1677,16.09453 1.6861,9.87465 3.6747,9.0446 -1.3355,9.54552 -10.8079,22.50105 0.4616,10.43178 2.1562,6.15973 1.7092,9.87709 -4.786,19.15848 -3.3546,15.98146 -4.1164,13.4688 -9.5106,16.23377 -4.6932,12.08635 -10.9414,37.60783 -5.6239,7.49999 -6.9469,5.78663 -7.8792,-5.19274 -7.193,-2.81485 -8.75,0.41697 -13.6907,4.40898 -20.6392,-2.82731 -20.1662,1.36318 -5.1085,3.72263 3.0137,13.58494 -7.4628,1.75936 -7.2687,-3.89879 -6.4475,4.55884 -5.3932,5.01655 -10.6606,11.914982 -3.614,7.34599 -1.0616,13.89203 5.4499,12.53024 4.8178,14.65443 -12.9724,17.48833 -7.1554,0.50773 -20.8029,-5.18593 -37.2078,10.33098 -33.0145,-9.57386 4.4376,-9.31321 0.062,-6.93441 2.1616,-10.61563 1.4031,-10.88164 -0.1075,-7.30522 -2.1977,-7.86079 -7.81617,-10.40393 -17.13462,-34.947582 -4.88225,-14.69983 -3.51705,-6.16356 2.68391,-0.24618 14.63626,8.27836 3.50445,-0.8493 3.74074,-2.82406 -4.10678,-11.298 -3.65323,-5.16119 -2.3468,-7.64293 8.74072,-1.77937 6.25464,0.64005 4.85528,-8.37451 -2.2692,-13.8182 -6.57686,-4.43498 -5.53919,-1.99864 -10.01699,-21.94808 -10.75395,-11.56401 -18.17529,-43.90926 -6.0285,-29.93334 -6.76669,2.55098 -2.69641,-13.04875 -1.79828,-12.34115 -0.0922,-9.01534 -10.13697,-5.60985 -0.15397,-6.33206 -0.62004,-28.24551 -10.86243,-4.27803 -6.3776,-16.15515 0.16152,-29.98875 -6.92857,-5.79277 -5.86906,1.2247 0.64925,-7.4169 1.72678,-6.88978 -1.98001,-27.78472 0.16475,-25.27988 -2.32311,-7.75449 -1.06932,-8.99611 1.76999,-7.64385 2.23695,-4.32343 6.9792,-0.81545 6.13772,7.13983 4.92531,17.46388 4.99086,2.47096 7.13612,-4.16343 5.39996,-12.31869 3.58463,-18.68859 3.97677,-17.7862 -2.94825,-19.34172 -3.28394,-17.04445 -0.0615,-4.96271 11.1409,-13.77436 3.69367,-11.44091 3.93003,-10.87936 3.98232,-3.59119 5.72767,-0.6293 6.70533,-1.82245 8.62776,-7.06594 7.82988,-9.62559 6.0054,-8.883 2.52851,-17.89622 0.38003,-9.01381 2.71298,-6.62437 2.83855,-13.01199 -1.91922,-13.00798 -6.59224,-19.83867 -7.72231,-27.89782 -0.81238,-15.1275 4.03849,-2.65409 7.60924,-2.23479 14.24681,-0.25994 1.58,-1.74013 1.6338,-6.55977 3.4701,-8.86918 3.5985,-6.4253 2.6008,-9.28458 1.3616,-8.4353 -7.6898,-12.99507 -10.1191,-13.39185 -6.97165,-4.56652 -12.26852,-11.44722 -8.52223,-9.53156 6.37068,-34.85066 4.69622,-25.95455 0.83081,-6.33668 0.4893,-9.8371 -10.41763,-42.46663 0.8216,-9.3317 1.4509,-8.3746 -0.71698,-14.4197 -0.19225,-12.8918 2.17692,-3.8265 5.0978,-7.0652 -4.16479,-11.4395 -0.33079,-0.937 -7.52324,-28.2124 14.16622,-27.1201 -1.72997,-14.3866 8.15312,-10.1009 14.90608,-23.3157 8.323,-13.1351 1.7417,-2.2848 6.4122,-5.7005 11.9946,-6.6499 13.1477,-3.0701 5.8107,0.1785 22.3608,5.186 17.4952,3.9579 2.6071,-3.6589 3.7646,-7.5336 4.8332,-10.7401 0.5477,-12.015 -1.4817,-17.6714 -2.4038,-10.6072 -12.0944,-7.0467 -13.1485,-9.6385 16.7754,-29.6241 11.5021,-20.601 14.2416,-31.1189 4.4201,-12.9995 3.1477,-5.1459 4.3539,-48.078 2.7375,-13.4612 2.2616,-7.0305 0.062,-7.2261 -1.3771,-12.2141 -3.6352,-27.5924 21.2361,-3.3403 6.907,-1.9316 6.4052,-3.3135 12.4885,-8.5913 6.0971,-7.5909 -3.5771,-25.7628 7.4432,-8.7963 17.9199,-30.6257 19.1207,-29.4894 8.9215,-11.2312 0.8415,-5.4281 0.5786,-8.7099 -4.2823,-13.5905 -4.46,-8.4045 -8.6308,-15.9174 3.4099,-11.275 6.0985,-2.2785 8.02,-4.5611 6.1131,-9.7141 0.5877,-1.2447 9.7615,-37.9957 20.0722,-19.6985 7.8501,-10.7011 12.9739,7.4421 19.1223,11.1526 7.6022,-17.7577 2.4709,-6.582 2.3253,-9.6516 -1.7883,-16.4562 -1.371,-21.445 0.4446,-8.6551 7.1424,-4.1597 3.8884,-1.1723 20.7929,7.9021 5.1256,-0.4186 9.669,0.6847 10.9792,3.295 23.19393,9.0022 9.6277,3.675 5.2783,0.4923 4.1848,-5.1295 8.7491,-13.0297 -14.7422,-8.1975 8.6493,-9.9126 4.1391,-9.6915 3.2852,-11.8148 0.5094,-13.5744 -1.0801,-7.2251 -3.1607,-4.7312 -9.3308,-11.7581 19.0333,-3.1316 6.6044,-1.0095 14.5639,7.0645 0.7462,1.704 0.4384,4.238 0.8386,4.3475 14.4908,10.0146 4.4192,5.5468 9.1361,8.2298 2.6355,4.6258 8.2753,4.9558 6.127,5.5344 6.9815,4.2856 8.3461,6.8784 10.8409,5.0612 8.8752,1.1186 22.9315,8.1253 4.0901,2.9602 m -113.0861,1455.15038 -0.8154,8.4747 -3.7585,-0.42926 -3.7217,-6.01972 6.3246,-9.85865 10.4924,-0.0768 3.7047,1.76262 -12.2254,6.14803 m -5.0778,12.00958 -5.7653,3.53104 -2.9955,9.69325 -4.7384,1.8577 -4.46,3.40736 -0.123,30.15952 9.0731,10.98934 -4.5784,1.83167 -4.0953,3.64109 -2.7978,5.21965 -2.5884,11.04103 -11.4708,6.73979 -4.2523,4.77654 -6.12,10.45794 -2.7801,14.88734 -6.4252,6.5836 -7.467,1.80339 3.897,-12.26652 5.3522,-10.08238 -5.8377,-6.50743 -3.7807,-10.41945 -4.6348,-7.93142 3.0348,-9.19922 -2.3023,-14.77057 -0.062,-14.50427 4.6332,-7.53306 5.3937,-6.20665 8.1769,-14.11191 9.0417,-10.39793 13.0276,-5.10963 6.187,3.81338 2.113,-9.17074 4.1568,-2.28481 4.1094,1.88015 9.0798,8.18221 m -178.78833,215.16866 -3.7045,6.84518 -3.4108,-0.41851 -2.4344,-8.98549 -0.9709,-23.23341 1.1354,-11.52186 15.2708,-41.79509 7.0839,-3.54259 9.4353,-25.66916 2.4216,-11.37647 4.0646,-10.30391 2.3161,-9.18229 2.0408,-3.73874 4.6978,1.59782 2.1145,1.62704 -4.7539,5.43583 0.7585,6.90057 -0.2631,2.86715 -11.6391,30.3549 -2.8531,19.57715 -4.3292,4.8627 -16.9794,69.69918"
       style="display:inline;stroke:#000000;stroke-width:1.53853"
       fill="#fff6d5"
       id="path1381">
      <title
         id="title4349">Sweden</title>
    </path>
    <path
       style="display:inline;fill:#c9ae95;fill-opacity:1;stroke:#000000;stroke-width:1.53853"
       d="m 695.45297,158.27852 1.1555,6.47437 -3.2748,-0.51851 -9.8099,1.39863 -9.6515,-2.27632 -1.7546,-8.05609 1.6577,-7.69991 -3.7962,-5.37962 -3.5253,-3.17881 -0.457,-4.45962 0.6462,-4.60251 16.4338,12.6524 13.4623,11.46114 -1.0862,4.18485"
       id="path9" />
    <path
       style="display:inline;fill:#c9ae95;fill-opacity:1;stroke:#000000;stroke-width:1.53853"
       d="m 657.92687,95.567332 1.7998,9.059978 -2.1839,4.55047 -8.6553,-7.8029 -8.8284,-0.0621 -5.5192,11.66418 -3.9439,0.42468 -13.40306,-11.01568 -2.05308,-5.282828 -0.34616,-4.34258 2.30985,-14.98671 -0.23539,-4.73059 4.37854,-5.07575 0.8369,-7.44292 7.6979,-7.70368 6.6744,-0.15369 1.9778,6.71273 3.0977,4.65348 11.1546,5.36831 1.6377,2.36477 0.96,3.26481 -5.3638,6.23602 -1.8386,3.21251 1.5709,5.24966 8.2739,5.83748"
       id="path8" />
    <path
       style="display:inline;fill:none;stroke:#000000;stroke-width:1.53853"
       d="m 120.93473,177.40961 -7.37768,-0.3783 2.49005,-3.29421 7.08841,-1.88021 3.65692,0.40473 -5.8577,5.14881"
       id="path1267" />
    <path
       id="path1317"
       d="m 1112.7853,58.381812 3.2462,1.31693 21.9177,-0.4077 22.2186,-0.50935 35.6329,-1.93118 37.1382,-2.2472 38.5318,-2.58937 41.6961,-3.08766 43.8078,-4.60274 2.5393,-1.26163 3.7236,-5.80447 5.5283,-0.0615 6.8659,2.29049 3.3378,1.97601 1.6575,2.52744 1.2479,3.0324 3.5985,0.12326 6.7623,1.47552 9.4776,4.18808 7.5888,4.27653 7.6055,6.5984 3.4299,8.23379 1.5785,9.66073 0.5124,6.30882 0.9324,2.44942 15.7291,43.803078 21.6484,41.19861 8.7837,20.1703 3.9525,10.85471 4.2941,15.94906 2.3209,11.30798 0.9246,6.42852 0.237,9.00119 -3.7324,5.91703 -27.0815,19.36218 -4.8351,5.51176 -6.962,12.91045 -6.2661,13.1607 -1.2587,4.36307 -0.1072,2.77381 2.347,3.67631 11.4927,4.87754 11.4196,3.57141 4.0513,3.33223 8.5998,3.75584 3.5489,3.99771 2.1396,3.62804 1.2477,8.93432 -1.698,12.8719 2.9069,9.10204 -2.6958,6.75399 -1.9535,7.34451 1.3894,12.15843 7.4165,12.5494 5.7956,8.44493 2.8031,6.89555 -0.9709,5.88575 1.4202,5.52145 4.8519,5.35185 15.3576,16.44041 8.9397,16.7121 5.0364,6.2684 10.5768,7.492 1.414,3.5417 -3.1567,3.9511 -2.9043,0.903 -2.2717,1.277 -1.0708,3.3897 2.9401,2.979 4.0365,4.4305 6.2548,13.3416 1.4001,11.4924 -2.6731,3.4137 -2.9366,7.4203 -1.7494,6.6232 -21.3246,7.7306 -4.2799,7.4435 -10.1292,14.6885 -7.1611,8.6271 -10.254,15.1682 -16.0871,25.8201 -5.8039,10.6517 -4.1288,8.7049 -12.8401,23.4227 -3.6467,9.5791 1.9754,7.1948 7.4961,16.5025 2.16,7.6143 0.1073,7.3061 -0.8154,6.6368 0.6892,2.808 5.3679,3.98 8.5571,6.2297 0.7785,2.3898 -0.6338,3.3046 -2.2598,2.7627 -9.7781,-1.2156 -11.2143,-3.4899 -3.5035,1.0877 -5.8601,-0.3633 -24.7481,-6.392 -16.7902,-5.4007 -2.1872,-4.654 -3.8842,-6.6472 -7.4665,-5.03 -16.0276,-3.151 -6.7612,-3.213 -25.2406,0.817 -10.8498,1.2153 -7.4864,2.5545 -4.9207,0.4001 -5.5524,11.2162 -4.3197,3.5549 -6.7906,1.1001 -6.1879,-1.1844 -6.7199,-4.7898 -10.0938,-1.8125 -6.9001,2.1714 -5.3319,-0.6309 -4.5143,0.2022 -1.44,1.2584 -3.6266,0.2347 -4.9589,3.1914 -5.3262,4.3159 -6.0162,3.4825 -4.2372,6.5728 -3.1159,12.3574 -12.8473,-4.0829 -3.8705,2.7295 -5.6455,2.1364 -4.1254,-1.2172 0.5324,-4.1929 1.3309,-4.8104 -0.7277,-6.4606 -1.843,-7.0224 -4.0246,-1.9414 -5.793,-0.2922 -3.0739,-1.1263 -0.5415,-2.3386 -3.2022,-2.7414 -5.7822,-7.1972 -5.6699,-9.0804 -3.5577,-2.5244 -4.356,4.992 -6.7689,5.8302 -4.3387,2.2139 -7.3738,15.6358 -15.6476,1.9085 -1.5827,-6.8567 -2.2304,-6.5178 -9.3164,-0.8677 -0.5877,-3.8831 -2.7799,-9.6416 -19.9294,-17.6591 -2.884,-7.8275 0.4569,-3.1511 -1.6838,-4.9878 -4.2212,-2.7527 -14.6994,-2.4869 -3.5336,2.387 -3.518,-1.8958 -5.5927,-4.177 -9.3876,-3.0463 -1.1324,-1.8582 -3.523,-3.0318 -1.8508,-0.3169 -1.0216,2.0892 -2.4275,3.0257 -9.0833,4.2681 -3.847,-1.1923 -3.6123,-2.8626 -4.347,-6.4194 -6.026,-5.4701 -4.76723,-1.7562 -2.8494,-2.8984 -0.757,-2.3611 9.90583,-5.5373 1.8746,-5.1227 -1.9509,-8.952 -1.6073,-1.0385 -3.8308,3.3555 -8.34883,3.2773 -7.789,1.7796 -4.0181,0.2785 -23.5086,-15.015 -14.8829,-4.1355 -8.6545,-0.9491 -0.8354,1.7378 4.4393,9.0196 7.4072,11.0053 -0.1387,3.0638 -7.771,5.1501 -4.4504,2.3161 -5.1703,4.2853 -4.2427,5.7277 -3.8135,2.7112 -3.4527,-0.4184 -3.7886,-2.4384 -10.2656,-16.3767 -12.3932,-12.2989 -1.5424,-2.8254 -3.6893,-0.4753 -5.3064,-2.6997 -1.9387,-3.8645 2.3659,-4.2738 3.3578,-3.964 6.1733,-2.6681 1.7953,-2.2917 0.9432,-3.373 2.0966,-4.3857 -0.6924,-1.5156 -4.7083,-4.598 -6.8311,-4.2223 -18.1061,4.3574 -4.8987,2.69 -2.984,-3.044 -2.3653,-4.5607 -4.6643,-0.6647 -6.5194,-3.9568 -7.6815,-3.8039 -7.3851,-0.9062 -15.4574,-5.3586 -5.876,-0.091 -3.4778,-1.9369 -3.7071,-4.4057 -3.1878,-4.8562 -1.9462,-10.0322 -11.3317,-4.1819 -11.223,-2.4783 -0.7307,1.497 0.8061,10.1712 -0.4016,5.4483 -7.233,3.6186 -7.2796,0.5601 0.3585,-1.6976 8.0883,-18.6172 3.5063,-11.6836 3.6872,-21.2246 -5.8818,-16.4498 -1.7337,-7.7452 -2.5837,-3.6471 -15.356,-7.6169 -1.2339,-2.7727 1.9678,-11.0653 -1.2894,-4.5912 -3.7659,-4.7702 -5.0466,-9.56722 -2.0804,-8.18498 5.7549,-9.86512 1.2756,-7.16278 2.318,-9.83169 1.7494,-5.39769 0.3155,-1.4833 -4.0549,-3.67603 -1.1647,-5.29388 0.8308,-7.72579 -2.2647,-5.62149 -5.3753,-3.53447 -3.556,-4.79747 -1.7543,-6.0416 0.957,-9.58982 3.6676,-13.15287 -9.0158,-15.42324 -21.5991,-17.76429 -10.425,-12.56909 0.6616,-7.34262 4.2636,-6.71841 7.869,-6.15565 5.7935,-10.70803 3.0628,-12.59767 0.046,-2.37312 -0.062,-8.95022 -10.2076,-36.3108 -1.7264,-9.12578 -1.3708,-10.99896 -0.6462,-3.0003 18.3435,7.25094 7.7369,4.13657 -1.0863,-4.86138 -1.669,-4.16192 0.8354,-6.22037 -0.7846,-9.32368 -16.5352,-4.30565 -10.8818,-1.34928 -1.3801,-6.43042 0.94,-4.22016 3.0498,2.39306 10.669,0.69082 25.7684,-13.29496 44.4533,-17.86379 47.2815,-17.33878 11.0943,-2.19517 11.0624,-3.7739 3.8568,-5.931588 3.9329,-4.03169 5.964,-10.43002 13.4763,-16.44088 24.9495,-7.17113 8.9753,-8.00864 19.072,-11.64508 44.071,-14.7752 18.5154,-3.95292 18.30093,-1.74848 17.0755,7.88404 18.2571,9.89033 3.7031,6.59283 -9.7469,-3.48055 -14.5007,-9.05798 -5.0845,-0.0162 14.2234,30.04381 7.325,10.42786 13.6754,7.08782 11.1344,1.81469 33.0718,-8.02562 11.2822,-7.6085 3.1145,-3.61616"
       style="display:inline;stroke:#000000;stroke-width:1.53853"
       fill="#fff6d5">
      <title
         id="title4308">Poland</title>
    </path>
  </g>
</svg>
