<?xml version="1.0" encoding="UTF-8" standalone="no"?>
<!-- Created with Inkscape (http://www.inkscape.org/) -->

<svg
   version="1.1"
   id="svg1"
   width="100%"
   height="100%"
   viewBox="0 0 401.77533 466.72131"
   sodipodi:docname="oil-outline.svg"
   inkscape:version="1.3 (0e150ed, 2023-07-21)"
   xmlns:inkscape="http://www.inkscape.org/namespaces/inkscape"
   xmlns:sodipodi="http://sodipodi.sourceforge.net/DTD/sodipodi-0.dtd"
   xmlns="http://www.w3.org/2000/svg"
   xmlns:svg="http://www.w3.org/2000/svg">
  <sodipodi:namedview
     id="namedview1"
     pagecolor="#ffffff"
     bordercolor="#000000"
     borderopacity="0.25"
     inkscape:showpageshadow="2"
     inkscape:pageopacity="0.0"
     inkscape:pagecheckerboard="0"
     inkscape:deskcolor="#d1d1d1"
     inkscape:zoom="1.4938752"
     inkscape:cx="211.86509"
     inkscape:cy="203.83229"
     inkscape:window-width="1440"
     inkscape:window-height="878"
     inkscape:window-x="0"
     inkscape:window-y="0"
     inkscape:window-maximized="1"
     inkscape:current-layer="g1"
     showguides="false" />
  <defs
     id="defs1" />
  <g
     id="g1"
     transform="translate(-758.20535,-70.758696)">
    <ellipse
       style="fill:#ffffff;fill-opacity:1;stroke:#000000;stroke-width:9.36287;stroke-linecap:butt;stroke-dasharray:none;stroke-dashoffset:0;stroke-opacity:1"
       id="path1"
       cx="959.69476"
       cy="113.24918"
       rx="198.73036"
       ry="36.400867" />
    <path
       id="path532"
       d="m 959.09033,530.26268 c -108.9855,0 -197.63314,-16.76133 -200.73657,-37.65333 h -0.14839 v 7.12934 h 0.0127 c 0.50849,20.86266 90.24731,37.74133 200.87229,37.74133 110.63034,0 200.36374,-16.87867 200.87774,-37.74133 h 0.013 v -7.12934 h -0.1484 c -3.1034,20.892 -91.751,37.65333 -200.74194,37.65333"
       style="fill:#080503;fill-opacity:1;fill-rule:nonzero;stroke:none;stroke-width:0.155331" />
    <path
       id="path533"
       d="m 1146.351,478.69869 c 0,0.0627 0.01,0.12666 0.01,0.18533 0,20.84533 -83.8432,37.74133 -187.26607,37.74133 -103.41742,0 -187.26064,-16.896 -187.26064,-37.74133 0,-0.0587 0.007,-0.12267 0.007,-0.18533 h -0.007 v -1.256 c -8.76379,4.35466 -13.62432,9.08533 -13.62432,14.03733 0,0.37867 0.0923,0.752 0.14839,1.12933 3.10343,20.892 91.75107,37.65333 200.73657,37.65333 108.99097,0 197.63857,-16.76133 200.74197,-37.65333 0.056,-0.37733 0.1484,-0.75066 0.1484,-1.12933 0,-4.952 -4.8605,-9.68267 -13.6243,-14.03733 v 1.256 h -0.01"
       style="fill:#ffffff;fill-opacity:1;fill-rule:nonzero;stroke:none;stroke-width:0.155331" />
    <path
       id="path534"
       d="m 771.82969,379.47336 v 99.22533 h 0.007 c 0,0.0627 -0.007,0.12666 -0.007,0.18533 0,20.84533 83.84322,37.74133 187.26064,37.74133 103.42287,0 187.26607,-16.896 187.26607,-37.74133 0,-0.0587 -0.01,-0.12267 -0.01,-0.18533 h 0.01 v -1.256 -97.97067 c -29.136,14.15867 -101.9661,24.19733 -187.26607,24.19733 -85.29449,0 -158.1228,-10.03866 -187.26064,-24.19599"
       style="fill:#ffffff;fill-opacity:1;fill-rule:nonzero;stroke:#000000;stroke-width:9.6;stroke-dasharray:none;stroke-opacity:1" />
    <path
       id="path535"
       d="m 959.09033,396.44669 c -108.9855,0 -197.63495,-16.75733 -200.73657,-37.65333 h -0.14839 v 7.13333 h 0.0127 c 0.11581,4.77867 4.95825,9.34267 13.61165,13.54667 29.13784,14.15733 101.96615,24.19599 187.26064,24.19599 85.29994,0 158.13004,-10.03866 187.26604,-24.19733 8.6516,-4.204 13.494,-8.768 13.6117,-13.54533 h 0.013 v -7.13333 h -0.1484 c -3.1016,20.896 -91.7492,37.65333 -200.74194,37.65333"
       style="fill:#080503;fill-opacity:1;fill-rule:nonzero;stroke:none;stroke-width:0.155331" />
    <path
       id="path536"
       d="m 1146.351,344.88802 c 0,0.0587 0.01,0.11734 0.01,0.184 0,20.83867 -83.8432,37.73867 -187.26607,37.73867 -103.41742,0 -187.26064,-16.9 -187.26064,-37.73867 0,-0.0667 0.007,-0.12533 0.007,-0.184 h -0.007 v -1.26 c -8.76379,4.35467 -13.62432,9.084 -13.62432,14.03734 0,0.37733 0.0923,0.752 0.14839,1.128 3.10162,20.896 91.75107,37.65333 200.73657,37.65333 108.99277,0 197.64037,-16.75733 200.74197,-37.65333 0.056,-0.376 0.1484,-0.75067 0.1484,-1.128 0,-4.95334 -4.8605,-9.684 -13.6243,-14.03734 v 1.26 h -0.01"
       style="fill:#ffffff;fill-opacity:1;fill-rule:nonzero;stroke:none;stroke-width:0.155331" />
    <path
       id="path537"
       d="m 959.09033,269.85469 c -85.29449,0 -158.1228,-10.04133 -187.26064,-24.19866 v 97.97199 1.26 h 0.007 c 0,0.0587 -0.007,0.11734 -0.007,0.184 0,20.83867 83.84322,37.73867 187.26064,37.73867 103.42287,0 187.26607,-16.9 187.26607,-37.73867 0,-0.0667 -0.01,-0.12533 -0.01,-0.184 h 0.01 v -1.26 -97.97333 c -29.136,14.15733 -101.9661,24.2 -187.26607,24.2"
       style="fill:#ffffff;fill-opacity:1;fill-rule:nonzero;stroke:#000000;stroke-width:9.6;stroke-dasharray:none;stroke-opacity:1" />
    <path
       id="path538"
       d="m 959.09033,262.63202 c -108.99274,0 -197.64762,-16.76133 -200.73657,-37.65466 h -0.14839 v 7.13467 h 0.0127 c 0.11581,4.776 4.95825,9.34 13.61165,13.544 29.13784,14.15733 101.96615,24.19866 187.26064,24.19866 85.29994,0 158.13004,-10.04267 187.26604,-24.2 8.6516,-4.204 13.494,-8.76666 13.6117,-13.54266 h 0.013 v -7.13467 h -0.1466 c -3.0907,20.89333 -91.7438,37.65466 -200.74374,37.65466"
       style="fill:#080503;fill-opacity:1;fill-rule:nonzero;stroke:none;stroke-width:0.155331" />
    <path
       id="path539"
       d="m 1146.351,211.07203 c 0,0.064 0.01,0.12266 0.01,0.18133 0,20.84533 -83.8432,37.74267 -187.26607,37.74267 -103.41742,0 -187.26064,-16.89734 -187.26064,-37.74267 0,-0.0587 0.007,-0.11733 0.007,-0.18133 h -0.007 v -1.256 c -8.76379,4.35466 -13.62432,9.08533 -13.62432,14.03733 0,0.37733 0.0923,0.75067 0.14839,1.124 3.08895,20.89333 91.74383,37.65466 200.73657,37.65466 108.99997,0 197.65307,-16.76133 200.74377,-37.65466 0.054,-0.37333 0.1466,-0.74667 0.1466,-1.124 0,-4.952 -4.8605,-9.68267 -13.6243,-14.03733 v 1.256 h -0.01"
       style="fill:#ffffff;fill-opacity:1;fill-rule:nonzero;stroke:none;stroke-width:0.155331" />
    <path
       id="path540"
       d="m 771.82969,127.55469 v 83.51734 h 0.007 c 0,0.064 -0.007,0.12266 -0.007,0.18133 0,20.84533 83.84322,37.74267 187.26064,37.74267 103.42287,0 187.26607,-16.89734 187.26607,-37.74267 0,-0.0587 -0.01,-0.11733 -0.01,-0.18133 h 0.01 v -1.256 -82.26134 c -29.136,14.15734 -101.9661,24.196 -187.26607,24.196 -85.29449,0 -158.1228,-10.03733 -187.26064,-24.196"
       style="fill:#ffffff;fill-opacity:1;fill-rule:nonzero;stroke:#000000;stroke-width:9.6;stroke-dasharray:none;stroke-opacity:1" />
    <path
       id="path548"
       d="m 1028.3936,111.8303 c 13.7241,0 24.8499,-3.72204 25.8641,-8.42696 0.051,-0.22826 0.1985,-0.44847 0.1985,-0.68211 0,-5.021801 -11.6703,-9.10101 -26.0626,-9.10101 -14.3974,0 -26.0609,4.079209 -26.0609,9.10101 0,0.23364 0.1476,0.45385 0.1968,0.68211 1.0159,4.70492 12.1366,8.42696 25.8641,8.42696"
       style="fill:#ffffff;fill-opacity:1;fill-rule:nonzero;stroke:#000000;stroke-width:6.72;stroke-dasharray:none;stroke-opacity:1" />
  </g>
</svg>
