<?xml version="1.0" encoding="UTF-8" standalone="no"?>
<!-- Created with Inkscape (http://www.inkscape.org/) -->

<svg
   version="1.1"
   id="svg1"
   width="100%"
   height="100%"
   viewBox="0 0 401.77533 466.72131"
   sodipodi:docname="oil.svg"
   inkscape:version="1.3 (0e150ed, 2023-07-21)"
   xmlns:inkscape="http://www.inkscape.org/namespaces/inkscape"
   xmlns:sodipodi="http://sodipodi.sourceforge.net/DTD/sodipodi-0.dtd"
   xmlns="http://www.w3.org/2000/svg"
   xmlns:svg="http://www.w3.org/2000/svg">
  <sodipodi:namedview
     id="namedview1"
     pagecolor="#ffffff"
     bordercolor="#000000"
     borderopacity="0.25"
     inkscape:showpageshadow="2"
     inkscape:pageopacity="0.0"
     inkscape:pagecheckerboard="0"
     inkscape:deskcolor="#d1d1d1"
     inkscape:zoom="1.4938752"
     inkscape:cx="218.55909"
     inkscape:cy="210.52629"
     inkscape:window-width="1440"
     inkscape:window-height="878"
     inkscape:window-x="0"
     inkscape:window-y="0"
     inkscape:window-maximized="1"
     inkscape:current-layer="group-R5" />
  <defs
     id="defs1" />
  <g
     id="g1"
     transform="translate(-758.20535,-70.758696)">
    <g
       id="group-R5"
       transform="matrix(1.3571841,0,0,1,-270.81885,0)">
      <path
         id="path532"
         d="m 6796.66,5408.53 c -602.27,0 -1092.15,125.71 -1109.3,282.4 h -0.82 v -53.47 h 0.07 c 2.81,-156.47 498.72,-283.06 1110.05,-283.06 611.36,0 1107.24,126.59 1110.08,283.06 h 0.07 v 53.47 h -0.82 c -17.15,-156.69 -507.03,-282.4 -1109.33,-282.4"
         style="fill:#080503;fill-opacity:1;fill-rule:nonzero;stroke:none"
         transform="matrix(0.13333333,0,0,-0.13333333,0,1251.4)" />
      <path
         id="path533"
         d="m 7831.49,5795.26 c 0,-0.47 0.03,-0.95 0.03,-1.39 0,-156.34 -463.33,-283.06 -1034.86,-283.06 -571.5,0 -1034.83,126.72 -1034.83,283.06 0,0.44 0.04,0.92 0.04,1.39 h -0.04 v 9.42 c -48.43,-32.66 -75.29,-68.14 -75.29,-105.28 0,-2.84 0.51,-5.64 0.82,-8.47 17.15,-156.69 507.03,-282.4 1109.3,-282.4 602.3,0 1092.18,125.71 1109.33,282.4 0.31,2.83 0.82,5.63 0.82,8.47 0,37.14 -26.86,72.62 -75.29,105.28 v -9.42 h -0.03"
         style="fill:#ffffff;fill-opacity:1;fill-rule:nonzero;stroke:none"
         transform="matrix(0.13333333,0,0,-0.13333333,0,1251.4)" />
      <path
         id="path534"
         d="m 5761.83,6539.45 v -744.19 h 0.04 c 0,-0.47 -0.04,-0.95 -0.04,-1.39 0,-156.34 463.33,-283.06 1034.83,-283.06 571.53,0 1034.86,126.72 1034.86,283.06 0,0.44 -0.03,0.92 -0.03,1.39 h 0.03 v 9.42 734.78 c -161.01,-106.19 -563.48,-181.48 -1034.86,-181.48 -471.35,0 -873.81,75.29 -1034.83,181.47"
         style="fill:#080503;fill-opacity:1;fill-rule:nonzero;stroke:none"
         transform="matrix(0.13333333,0,0,-0.13333333,0,1251.4)" />
      <path
         id="path535"
         d="m 6796.66,6412.15 c -602.27,0 -1092.16,125.68 -1109.3,282.4 h -0.82 v -53.5 h 0.07 c 0.64,-35.84 27.4,-70.07 75.22,-101.6 161.02,-106.18 563.48,-181.47 1034.83,-181.47 471.38,0 873.85,75.29 1034.86,181.48 47.81,31.53 74.57,65.76 75.22,101.59 h 0.07 v 53.5 h -0.82 c -17.14,-156.72 -507.02,-282.4 -1109.33,-282.4"
         style="fill:#080503;fill-opacity:1;fill-rule:nonzero;stroke:none"
         transform="matrix(0.13333333,0,0,-0.13333333,0,1251.4)" />
      <path
         id="path536"
         d="m 7831.49,6798.84 c 0,-0.44 0.03,-0.88 0.03,-1.38 0,-156.29 -463.33,-283.04 -1034.86,-283.04 -571.5,0 -1034.83,126.75 -1034.83,283.04 0,0.5 0.04,0.94 0.04,1.38 h -0.04 v 9.45 c -48.43,-32.66 -75.29,-68.13 -75.29,-105.28 0,-2.83 0.51,-5.64 0.82,-8.46 17.14,-156.72 507.03,-282.4 1109.3,-282.4 602.31,0 1092.19,125.68 1109.33,282.4 0.31,2.82 0.82,5.63 0.82,8.46 0,37.15 -26.86,72.63 -75.29,105.28 v -9.45 h -0.03"
         style="fill:#ffffff;fill-opacity:1;fill-rule:nonzero;stroke:none"
         transform="matrix(0.13333333,0,0,-0.13333333,0,1251.4)" />
      <path
         id="path537"
         d="m 6796.66,7361.59 c -471.35,0 -873.81,75.31 -1034.83,181.49 v -734.79 -9.45 h 0.04 c 0,-0.44 -0.04,-0.88 -0.04,-1.38 0,-156.29 463.33,-283.04 1034.83,-283.04 571.53,0 1034.86,126.75 1034.86,283.04 0,0.5 -0.03,0.94 -0.03,1.38 h 0.03 v 9.45 734.8 c -161.01,-106.18 -563.48,-181.5 -1034.86,-181.5"
         style="fill:#080503;fill-opacity:1;fill-rule:nonzero;stroke:none"
         transform="matrix(0.13333333,0,0,-0.13333333,0,1251.4)" />
      <path
         id="path538"
         d="m 6796.66,7415.76 c -602.31,0 -1092.23,125.71 -1109.3,282.41 h -0.82 v -53.51 h 0.07 c 0.64,-35.82 27.4,-70.05 75.22,-101.58 161.02,-106.18 563.48,-181.49 1034.83,-181.49 471.38,0 873.85,75.32 1034.86,181.5 47.81,31.53 74.57,65.75 75.22,101.57 h 0.07 v 53.51 H 7906 c -17.08,-156.7 -506.99,-282.41 -1109.34,-282.41"
         style="fill:#080503;fill-opacity:1;fill-rule:nonzero;stroke:none"
         transform="matrix(0.13333333,0,0,-0.13333333,0,1251.4)" />
      <path
         id="path539"
         d="m 7831.49,7802.46 c 0,-0.48 0.03,-0.92 0.03,-1.36 0,-156.34 -463.33,-283.07 -1034.86,-283.07 -571.5,0 -1034.83,126.73 -1034.83,283.07 0,0.44 0.04,0.88 0.04,1.36 h -0.04 v 9.42 c -48.43,-32.66 -75.29,-68.14 -75.29,-105.28 0,-2.83 0.51,-5.63 0.82,-8.43 17.07,-156.7 506.99,-282.41 1109.3,-282.41 602.35,0 1092.26,125.71 1109.34,282.41 0.3,2.8 0.81,5.6 0.81,8.43 0,37.14 -26.86,72.62 -75.29,105.28 v -9.42 h -0.03"
         style="fill:#ffffff;fill-opacity:1;fill-rule:nonzero;stroke:none"
         transform="matrix(0.13333333,0,0,-0.13333333,0,1251.4)" />
      <path
         id="path540"
         d="m 5761.83,8428.84 v -626.38 h 0.04 c 0,-0.48 -0.04,-0.92 -0.04,-1.36 0,-156.34 463.33,-283.07 1034.83,-283.07 571.53,0 1034.86,126.73 1034.86,283.07 0,0.44 -0.03,0.88 -0.03,1.36 h 0.03 v 9.42 616.96 c -161.01,-106.18 -563.48,-181.47 -1034.86,-181.47 -471.35,0 -873.81,75.28 -1034.83,181.47"
         style="fill:#080503;fill-opacity:1;fill-rule:nonzero;stroke:none"
         transform="matrix(0.13333333,0,0,-0.13333333,0,1251.4)" />
      <path
         id="path541"
         d="m 7905.47,8583.9 c 0.83,-4.48 1.34,-8.98 1.34,-13.51 v 13.51 h -1.34"
         style="fill:#100f0d;fill-opacity:1;fill-rule:nonzero;stroke:none"
         transform="matrix(0.13333333,0,0,-0.13333333,0,1251.4)" />
      <path
         id="path542"
         d="m 6796.66,8285.96 c -613.11,0 -1110.12,127.32 -1110.12,284.43 v -39.96 h 0.07 c 0.64,-35.83 27.4,-70.06 75.22,-101.59 161.02,-106.19 563.48,-181.47 1034.83,-181.47 471.38,0 873.85,75.29 1034.86,181.47 47.81,31.54 74.57,65.76 75.22,101.59 h 0.07 v 39.96 c 0,-157.11 -497.01,-284.43 -1110.15,-284.43"
         style="fill:#080503;fill-opacity:1;fill-rule:nonzero;stroke:none"
         transform="matrix(0.13333333,0,0,-0.13333333,0,1251.4)" />
      <path
         id="path543"
         d="m 5686.54,8583.9 v -13.51 c 0,4.53 0.52,9.03 1.34,13.51 h -1.34"
         style="fill:#100f0d;fill-opacity:1;fill-rule:nonzero;stroke:none"
         transform="matrix(0.13333333,0,0,-0.13333333,0,1251.4)" />
      <path
         id="path544"
         d="m 6796.66,8355.86 c -489.17,0 -891.99,82.28 -945.61,188.19 -8.1,11.45 -12.48,23.18 -12.48,35.15 0,120.78 428.94,218.73 958.09,218.73 529.19,0 958.13,-97.95 958.13,-218.73 0,-11.98 -4.38,-23.72 -12.5,-35.18 -53.65,-105.89 -456.42,-188.16 -945.63,-188.16 z m 0,498.95 c -595.41,0 -1081.22,-120.11 -1108.78,-270.91 -0.82,-4.48 -1.34,-8.98 -1.34,-13.51 0,-157.11 497.01,-284.43 1110.12,-284.43 613.14,0 1110.15,127.32 1110.15,284.43 0,4.53 -0.51,9.03 -1.34,13.51 -27.54,150.8 -513.36,270.91 -1108.81,270.91"
         style="fill:#ffffff;fill-opacity:1;fill-rule:nonzero;stroke:none;stroke-width:0.99786914;stroke-dasharray:none"
         transform="matrix(0.13333333,0,0,-0.13333333,0,1251.4)" />
      <path
         id="path545"
         d="m 6796.66,8797.93 c -529.15,0 -958.09,-97.95 -958.09,-218.73 0,-11.97 4.38,-23.7 12.48,-35.15 -4.01,7.9 -6.26,15.92 -6.26,24.06 0,117.19 426.2,212.19 951.87,212.19 525.74,0 951.91,-95 951.91,-212.19 0,-8.15 -2.27,-16.18 -6.28,-24.09 8.12,11.46 12.5,23.2 12.5,35.18 0,120.78 -428.94,218.73 -958.13,218.73"
         style="fill:#4d2b0f;fill-opacity:1;fill-rule:nonzero;stroke:none"
         transform="matrix(0.13333333,0,0,-0.13333333,0,1251.4)" />
      <path
         id="path546"
         d="m 7025.98,8657.75 c 0,18.7 68.77,33.89 153.66,33.89 84.86,0 153.67,-15.19 153.67,-33.89 0,-0.87 -0.87,-1.69 -1.17,-2.54 0.3,-0.86 1.17,-1.67 1.17,-2.54 0,-18.73 -68.81,-33.89 -153.67,-33.89 -84.89,0 -153.66,15.16 -153.66,33.89 0,0.87 0.87,1.68 1.16,2.54 -0.29,0.85 -1.16,1.67 -1.16,2.54 z m -229.32,122.55 c -525.67,0 -951.87,-95 -951.87,-212.19 0,-8.14 2.25,-16.16 6.26,-24.06 53.62,-105.91 456.44,-188.19 945.61,-188.19 489.21,0 891.98,82.27 945.63,188.16 4.01,7.91 6.28,15.94 6.28,24.09 0,117.19 -426.17,212.19 -951.91,212.19"
         style="fill:#080503;fill-opacity:1;fill-rule:nonzero;stroke:none"
         transform="matrix(0.13333333,0,0,-0.13333333,0,1251.4)" />
      <path
         id="path547"
         d="m 7179.64,8618.78 c 84.86,0 153.67,15.16 153.67,33.89 0,0.87 -0.87,1.68 -1.17,2.54 -5.98,-17.52 -71.58,-31.38 -152.5,-31.38 -80.94,0 -146.51,13.86 -152.5,31.38 -0.29,-0.86 -1.16,-1.67 -1.16,-2.54 0,-18.73 68.77,-33.89 153.66,-33.89"
         style="fill:#100f0d;fill-opacity:1;fill-rule:nonzero;stroke:none"
         transform="matrix(0.13333333,0,0,-0.13333333,0,1251.4)" />
      <path
         id="path548"
         d="m 7179.64,8623.83 c 80.92,0 146.52,13.86 152.5,31.38 0.3,0.85 1.17,1.67 1.17,2.54 0,18.7 -68.81,33.89 -153.67,33.89 -84.89,0 -153.66,-15.19 -153.66,-33.89 0,-0.87 0.87,-1.69 1.16,-2.54 5.99,-17.52 71.56,-31.38 152.5,-31.38"
         style="fill:#ffffff;fill-opacity:1;fill-rule:nonzero;stroke:none"
         transform="matrix(0.13333333,0,0,-0.13333333,0,1251.4)" />
    </g>
  </g>
</svg>
