<?xml version="1.0" encoding="UTF-8" standalone="no"?>
<!-- Uploaded to: SVG Repo, www.svgrepo.com, Generator: SVG Repo Mixer Tools -->

<svg
   width="800px"
   height="800px"
   preserveAspectRatio="none"
   viewBox="0 0 72 72"
   id="emoji"
   version="1.1"
   sodipodi:docname="nuclear-power-plant-svgrepo-com.svg"
   inkscape:version="1.3 (0e150ed, 2023-07-21)"
   xmlns:inkscape="http://www.inkscape.org/namespaces/inkscape"
   xmlns:sodipodi="http://sodipodi.sourceforge.net/DTD/sodipodi-0.dtd"
   xmlns="http://www.w3.org/2000/svg"
   xmlns:svg="http://www.w3.org/2000/svg">
  <defs
     id="defs9" />
  <sodipodi:namedview
     id="namedview9"
     pagecolor="#ffffff"
     bordercolor="#000000"
     borderopacity="0.25"
     inkscape:showpageshadow="2"
     inkscape:pageopacity="0.0"
     inkscape:pagecheckerboard="0"
     inkscape:deskcolor="#d1d1d1"
     inkscape:zoom="0.61494021"
     inkscape:cx="439.88017"
     inkscape:cy="402.47816"
     inkscape:window-width="1440"
     inkscape:window-height="878"
     inkscape:window-x="0"
     inkscape:window-y="0"
     inkscape:window-maximized="1"
     inkscape:current-layer="emoji" />
  <rect
     style="fill:#7aacb1;fill-opacity:1;stroke:none;stroke-width:1.296;stroke-linejoin:round;stroke-opacity:1"
     id="rect10"
     width="73.031487"
     height="72.153358"
     x="-0.73177844"
     y="-0.29271138" />
  <path
     style="fill:#74b775;fill-opacity:1;stroke:none;stroke-width:1.36607;stroke-linejoin:round"
     d="M -1.451754,46.984861 36.61253,35.418078 73.154241,46.515937 73.763269,74.495048 H -1.7562683 Z"
     id="path10" />
  <g
     id="color">
    <path
       fill="#ffffff"
       d="M22.87,30.1262c-.01,0-.02-.02-.02-.02a4.3973,4.3973,0,0,1-.52-.36c-.01-.01-.02-.01-.03-.02a6.0978,6.0978,0,0,1-1.83-2.6,5.9978,5.9978,0,0,1,3.16-7.51,3.9769,3.9769,0,0,1,6.76-2.13,5.015,5.015,0,0,1,2.72-2.41,4.9237,4.9237,0,0,1,3.28-.02,4.9749,4.9749,0,0,1,7.3-5.21,7.9429,7.9429,0,0,1,2.83-1.77,7.846,7.846,0,0,1,2.67-.48,5.88,5.88,0,0,1,2.03-1.23,6.0027,6.0027,0,0,1,7.69,3.58c.06.17.11.34.16.52a3.5285,3.5285,0,0,1,.56.14,3.9477,3.9477,0,0,1,2.53,2.42,4.0017,4.0017,0,0,1-2.39,5.12,3.9424,3.9424,0,0,1-2.91-.08,7.9818,7.9818,0,0,1-9.79,5.21,4.96,4.96,0,0,1-8.71,2.36,4.9417,4.9417,0,0,1-6.82,1.99,5.9139,5.9139,0,0,1-2.06,2.41"
       id="path1" />
    <path
       fill="#ffffff"
       d="M22.87,30.1262c-.01,0-.02-.02-.02-.02a4.3973,4.3973,0,0,1-.52-.36c-.01-.01-.02-.01-.03-.02a6.0978,6.0978,0,0,1-1.83-2.6,5.9978,5.9978,0,0,1,3.16-7.51,3.9769,3.9769,0,0,1,6.76-2.13,5.015,5.015,0,0,1,2.72-2.41,4.9237,4.9237,0,0,1,3.28-.02,4.9749,4.9749,0,0,1,7.3-5.21,7.9429,7.9429,0,0,1,2.83-1.77,7.846,7.846,0,0,1,2.67-.48,5.88,5.88,0,0,1,2.03-1.23,6.0027,6.0027,0,0,1,7.69,3.58c.06.17.11.34.16.52a3.5285,3.5285,0,0,1,.56.14,3.9477,3.9477,0,0,1,2.53,2.42,4.0017,4.0017,0,0,1-2.39,5.12,3.9424,3.9424,0,0,1-2.91-.08,7.9818,7.9818,0,0,1-9.79,5.21,4.96,4.96,0,0,1-8.71,2.36,4.9417,4.9417,0,0,1-6.82,1.99,5.9139,5.9139,0,0,1-2.06,2.41"
       id="path2" />
    <path
       fill="#9b9b9a"
       d="M70.24,10.5062a.8469.8469,0,0,0-.17-.04c-.01-.05-.03-.1-.04-.14A1.68,1.68,0,0,1,70.24,10.5062Z"
       id="path3" />
    <rect
       x="51"
       y="27"
       width="6"
       height="39"
       fill="#ffffff"
       id="rect3" />
    <path
       fill="#9b9b9a"
       d="M47,47.2622a7.946,7.946,0,0,0-8.1866,2.667C37.7017,42.6331,37.6422,34.7977,39.197,30H33V66H47Z"
       id="path4" />
    <path
       fill="#d0cfce"
       d="M33,66V30H16c3,9.2571,0,29.8286-5,36Z"
       id="path5" />
    <path
       fill="#3f3f3f"
       d="M47,47.2622V66h6V55A7.9959,7.9959,0,0,0,47,47.2622Z"
       id="path6" />
    <rect
       x="51"
       y="31"
       width="6"
       height="4"
       fill="#ea5a47"
       id="rect6" />
  </g>
  <g
     id="line">
    <path
       fill="none"
       stroke="#000000"
       stroke-linecap="round"
       stroke-linejoin="round"
       stroke-width="2"
       d="M22.87,30c-.01,0-.02-.02-.02-.02a4.3973,4.3973,0,0,1-.52-.36c-.01-.01-.02-.01-.03-.02A6.0978,6.0978,0,0,1,20.47,27a5.9978,5.9978,0,0,1,3.16-7.51,3.9769,3.9769,0,0,1,6.76-2.13,5.015,5.015,0,0,1,2.72-2.41,4.9237,4.9237,0,0,1,3.28-.02,4.9749,4.9749,0,0,1,7.3-5.21,7.9429,7.9429,0,0,1,2.83-1.77,7.846,7.846,0,0,1,2.67-.48,5.88,5.88,0,0,1,2.03-1.23,6.0027,6.0027,0,0,1,7.69,3.58c.06.17.11.34.16.52a3.5285,3.5285,0,0,1,.56.14,3.9477,3.9477,0,0,1,2.53,2.42,4.0017,4.0017,0,0,1-2.39,5.12,3.9424,3.9424,0,0,1-2.91-.08,7.9818,7.9818,0,0,1-9.79,5.21,4.96,4.96,0,0,1-8.71,2.36,4.9417,4.9417,0,0,1-6.82,1.99,5.9139,5.9139,0,0,1-2.06,2.41"
       id="path7" />
    <path
       fill="none"
       stroke="#000000"
       stroke-linecap="round"
       stroke-linejoin="round"
       stroke-width="2"
       d="M44.1969,66c-5-6.1714-8-26.7429-5-36H16c3,9.2571,0,29.8286-5,36Z"
       id="path8" />
    <polyline
       fill="none"
       stroke="#000000"
       stroke-linecap="round"
       stroke-linejoin="round"
       stroke-width="2"
       points="53 66 57 66 57 27 51 27 51 49.721"
       id="polyline8" />
    <path
       fill="none"
       stroke="#000000"
       stroke-linecap="round"
       stroke-linejoin="round"
       stroke-width="2"
       d="M44.197,66H53V55a7.9993,7.9993,0,0,0-14.1866-5.0708"
       id="path9" />
  </g>
</svg>
